<svg width="1440" height="238" viewBox="0 0 1440 238" fill="none" xmlns="http://www.w3.org/2000/svg">
<path fill-rule="evenodd" clip-rule="evenodd" d="M623.087 90.7562C626.868 90.7562 630.274 90.2958 633.288 89.3592C636.303 88.4397 638.926 87.0267 641.174 85.1363C645.67 81.3553 647.918 76.4503 647.918 70.4215C647.918 67.8152 647.56 65.4652 646.845 63.3361C646.13 61.2242 645.057 59.3338 643.626 57.6479C642.196 55.9618 640.629 54.5828 638.943 53.5264C637.24 52.4537 635.401 51.7217 633.407 51.3128C635.06 50.631 636.576 49.6266 637.921 48.3325C639.266 47.0374 640.356 45.4367 641.157 43.5634C641.974 41.6729 642.383 39.5271 642.4 37.1085C642.384 33.2764 641.481 30.0404 639.692 27.3845C637.903 24.7277 635.401 22.7003 632.165 21.3213C628.929 19.9243 625.131 19.2266 620.736 19.2266H587.117V90.7562H623.087ZM601.832 59.3852H620.328C622.764 59.3852 624.841 59.7599 626.578 60.4751C628.315 61.2071 629.644 62.2635 630.563 63.6596C631.5 65.0735 631.977 66.7768 631.977 68.7861C631.977 70.7964 631.5 72.4993 630.563 73.8783C629.644 75.2578 628.315 76.2975 626.578 77.0124C624.841 77.7276 622.764 78.085 620.328 78.085H601.832V59.3852ZM601.832 31.4886H618.386C621.486 31.5045 623.888 32.2038 625.591 33.6008C627.311 34.9794 628.179 36.9385 628.196 39.4594C628.18 41.9291 627.311 43.8355 625.591 45.181C623.888 46.5266 621.486 47.2084 618.386 47.2246H601.832V31.4886ZM683.786 92.0847C686.8 92.0847 689.644 91.7784 692.318 91.148C694.992 90.5348 697.529 89.581 699.931 88.3037V76.0417C697.938 77.217 695.792 78.085 693.494 78.6642C691.194 79.2263 688.742 79.5163 686.136 79.5163C683.939 79.5163 681.895 79.1919 680.022 78.5282C678.131 77.8635 676.428 76.8592 674.895 75.5308C673.363 74.2024 672.204 72.6697 671.438 70.9492C670.671 69.2119 670.297 67.3045 670.297 65.2095C670.297 63.1147 670.671 61.2071 671.438 59.4879C672.187 57.7677 673.311 56.269 674.794 54.9908C677.858 52.334 681.639 51.0056 686.136 51.0056C688.23 51.0056 690.376 51.2614 692.54 51.7719C694.719 52.2835 696.916 53.0501 699.114 54.0713V41.809C696.866 40.6852 694.481 39.834 691.978 39.272C689.457 38.7099 686.8 38.4372 683.99 38.4372C680.158 38.4372 676.599 39.0505 673.328 40.2763C670.042 41.503 667.027 43.342 664.268 45.7945C661.561 48.1956 659.516 51.0055 658.154 54.2244C656.774 57.4433 656.094 61.0711 656.094 65.1078C656.094 69.1436 656.774 72.7885 658.154 76.0757C659.516 79.3451 661.561 82.2237 664.268 84.7274C666.976 87.1799 669.956 89.019 673.227 90.2457C676.48 91.4715 680.005 92.0847 683.786 92.0847ZM737.127 92.0847C741.316 92.0847 745.029 91.6414 748.248 90.7734C751.484 89.905 754.243 88.61 756.542 86.8736V75.3265C753.937 76.8081 751.28 77.9319 748.554 78.6814C745.847 79.4477 743.053 79.8223 740.192 79.8223C737.178 79.8223 734.487 79.4134 732.119 78.6127C729.735 77.813 727.777 76.6206 726.227 75.0364C724.694 73.4532 723.655 71.5112 723.127 69.195H759.71V65.414C759.71 61.6331 759.148 58.1594 758.041 54.9739C756.917 51.8062 755.265 48.9117 753.067 46.3051C750.871 43.6994 748.316 41.7407 745.387 40.4132C742.441 39.101 739.119 38.4372 735.39 38.4372C731.456 38.4372 727.879 39.0848 724.678 40.3617C721.459 41.6561 718.632 43.5977 716.179 46.2034C711.274 51.3128 708.822 57.6479 708.822 65.2095C708.822 69.2462 709.503 72.8912 710.882 76.1606C712.244 79.4134 714.289 82.2748 716.996 84.7274C719.704 87.1799 722.736 89.019 726.108 90.2457C729.462 91.4715 733.142 92.0847 737.127 92.0847ZM723.127 59.9984C723.382 57.972 723.996 56.2003 725.018 54.6676C726.022 53.1346 727.351 51.9422 729.003 51.091C730.672 50.2229 732.58 49.7969 734.776 49.7798C736.94 49.7956 738.796 50.2732 740.346 51.1768C741.912 52.0963 743.139 53.322 744.024 54.8548C744.909 56.3878 745.404 58.1079 745.506 59.9984H723.127ZM785.153 90.7562V51.8233H811.211V39.7657H770.746V90.7562H785.153ZM828.991 103.733V90.7562H865.778V103.733H879.369V78.6986H870.99V39.7657H828.072L827.867 49.6772C827.766 56.3707 827.204 62.1276 826.181 66.9468C825.159 71.767 823.678 75.684 821.737 78.6986H815.196V103.733H828.991ZM836.451 78.6986C837.933 75.0708 839.057 71.0178 839.806 66.5211C840.573 62.0421 840.947 57.137 840.947 51.8233H856.888V78.6986H836.451ZM937.82 79.618C936.644 79.618 935.759 79.2946 935.145 78.6299C934.549 77.9833 934.243 77.0123 934.243 75.7354V58.4654C934.243 52.2323 931.995 47.3273 927.498 43.7509C925.301 41.9621 922.73 40.6337 919.783 39.7485C916.837 38.8802 913.55 38.4372 909.922 38.4372C906.193 38.4372 902.769 38.7775 899.636 39.4422C896.485 40.1231 893.624 41.1452 891.018 42.5242V54.5828C893.42 53.1517 895.924 52.0791 898.495 51.3639C901.083 50.6481 903.74 50.2904 906.448 50.2904C910.944 50.2904 914.316 51.091 916.564 52.6751C918.812 54.2758 919.936 56.6769 919.936 59.8958V61.4285C917.893 60.3559 915.645 59.5552 913.192 59.0446C910.74 58.5168 908.083 58.2611 905.222 58.2611C902.463 58.2611 899.908 58.6185 897.541 59.3337C895.19 60.0499 893.011 61.1226 891.018 62.5527C889.025 63.9837 887.544 65.7372 886.556 67.8323C885.585 69.9099 885.091 72.3119 885.091 75.0192C885.126 78.4767 885.925 81.4913 887.51 84.0293C889.094 86.5835 891.308 88.5595 894.118 89.9556C896.928 91.3526 900.181 92.0675 903.893 92.0847C907.521 92.0847 910.791 91.5054 913.72 90.3301C916.633 89.172 919.221 87.4356 921.469 85.1363C922.44 87.3327 923.871 88.9674 925.795 90.0582C927.703 91.1308 930.104 91.6757 933.016 91.6757C934.702 91.6757 936.184 91.4886 937.479 91.1309C938.756 90.7734 939.863 90.2457 940.783 89.5295V79.0049C940.425 79.2092 939.999 79.3622 939.488 79.4648C938.994 79.5665 938.432 79.618 937.82 79.618ZM919.936 75.7354C918.608 77.4718 916.973 78.7831 915.048 79.6524C913.108 80.5204 910.893 80.9464 908.39 80.9464C906.601 80.9464 905.034 80.7078 903.672 80.2312C902.31 79.7369 901.236 79.0048 900.47 78.0167C899.704 77.0467 899.312 75.8028 899.295 74.3044C899.311 72.9074 899.72 71.7159 900.521 70.7106C901.339 69.7228 902.497 68.9732 903.996 68.4455C905.477 67.9349 907.249 67.662 909.31 67.662C911.404 67.662 913.328 67.9178 915.083 68.4112C916.837 68.9231 918.455 69.6551 919.936 70.6261V75.7354ZM1008.12 38.4372C1004.44 38.4372 1001.21 39.0676 998.398 40.3446C995.605 41.6047 993.255 43.4951 991.364 45.9988V39.7657H976.957V111.194H991.364V84.5228C993.357 87.0268 995.741 88.9173 998.518 90.177C1001.29 91.4543 1004.5 92.0847 1008.12 92.0847C1015.07 92.0847 1020.79 89.5295 1025.29 84.4211C1027.59 81.8148 1029.31 78.9199 1030.43 75.7516C1031.58 72.5667 1032.14 69.0931 1032.14 65.3121C1032.14 61.48 1031.58 57.972 1030.43 54.8037C1029.31 51.6188 1027.59 48.7576 1025.29 46.2034C1023.04 43.5977 1020.49 41.6561 1017.63 40.3617C1014.77 39.0848 1011.6 38.4372 1008.12 38.4372ZM1004.04 51.0056C1006.03 51.0056 1007.87 51.33 1009.54 52.0109C1011.19 52.6924 1012.67 53.7138 1013.95 55.0937C1015.22 56.4732 1016.2 58.0054 1016.84 59.7084C1017.51 61.3946 1017.83 63.2688 1017.83 65.3121C1017.83 67.3046 1017.51 69.1435 1016.84 70.8294C1016.2 72.5165 1015.22 74.0483 1013.95 75.4282C1012.67 76.8081 1011.19 77.8292 1009.54 78.511C1007.87 79.1748 1006.03 79.5163 1004.04 79.5163C1002.16 79.5004 1000.41 79.1748 998.773 78.5282C997.155 77.8807 995.707 76.9952 994.447 75.8714C993.187 74.7302 992.148 73.436 991.364 71.9544V58.67C992.148 57.1885 993.187 55.8773 994.447 54.736C995.707 53.5779 997.155 52.6752 998.773 52.0109C1000.39 51.3468 1002.14 51.0227 1004.04 51.0056ZM1054.41 90.7562L1066.17 73.8954H1074.85V90.7562H1089.26V39.7657H1061.87C1057.41 39.7997 1053.7 40.5149 1050.73 41.9453C1047.77 43.3763 1045.54 45.318 1044.06 47.8039C1042.58 50.2904 1041.85 53.1175 1041.85 56.3192C1041.85 63.8811 1045.22 68.8887 1051.96 71.3413L1038.27 90.7562H1054.41ZM1064.22 63.4722C1061.81 63.4563 1059.93 62.9272 1058.59 61.8546C1057.26 60.7819 1056.58 59.2492 1056.56 57.239C1056.58 55.2297 1057.26 53.6967 1058.59 52.624C1059.93 51.5514 1061.81 51.0056 1064.22 51.0056H1074.85V63.4722H1064.22ZM1112.15 103.733V90.7562H1148.94V103.733H1162.53V78.6986H1154.15V39.7657H1111.23L1111.02 49.6772C1110.92 56.3707 1110.36 62.1276 1109.34 66.9468C1108.32 71.767 1106.83 75.684 1104.89 78.6986H1098.35V103.733H1112.15ZM1119.61 78.6986C1121.09 75.0708 1122.21 71.0178 1122.96 66.5211C1123.73 62.0421 1124.1 57.137 1124.1 51.8233H1140.04V78.6986H1119.61ZM1187.25 75.4282C1185.93 74.0483 1184.92 72.5165 1184.26 70.8132C1183.59 69.1273 1183.27 67.2531 1183.27 65.2095C1183.27 61.1225 1184.6 57.7505 1187.25 55.0937C1188.58 53.7138 1190.1 52.6924 1191.78 52.0109C1193.47 51.33 1195.33 51.0056 1197.37 51.0056C1199.42 51.0056 1201.29 51.33 1202.97 52.0109C1204.66 52.6924 1206.16 53.7138 1207.49 55.0937C1210.14 57.7505 1211.47 61.1225 1211.47 65.2095C1211.47 67.2531 1211.15 69.1273 1210.48 70.8132C1209.82 72.5165 1208.82 74.0483 1207.49 75.4282C1206.16 76.8081 1204.66 77.8292 1202.97 78.511C1201.29 79.1748 1199.42 79.5163 1197.37 79.5163C1195.33 79.5163 1193.47 79.1748 1191.78 78.511C1190.1 77.8292 1188.58 76.8081 1187.25 75.4282ZM1169.07 65.2095C1169.07 69.0419 1169.73 72.5499 1171.06 75.7354C1172.39 78.92 1174.38 81.8148 1177.04 84.4211C1179.69 86.9753 1182.71 88.8829 1186.1 90.1599C1189.47 91.4371 1193.23 92.0847 1197.37 92.0847C1201.51 92.0847 1205.27 91.4371 1208.65 90.1599C1212.03 88.8829 1215.05 86.9753 1217.71 84.4211C1220.36 81.8148 1222.36 78.92 1223.68 75.7354C1225.01 72.5499 1225.68 69.0419 1225.68 65.2095C1225.68 57.7505 1223.02 51.4144 1217.71 46.2034C1215.05 43.5977 1212.03 41.6561 1208.65 40.3617C1205.27 39.0848 1201.51 38.4372 1197.37 38.4372C1193.23 38.4372 1189.47 39.0848 1186.1 40.3617C1182.71 41.6561 1179.69 43.5977 1177.04 46.2034C1171.72 51.3128 1169.07 57.6479 1169.07 65.2095ZM1249.89 90.7562V59.2832L1262.46 75.1219H1268.19L1280.86 59.2832V90.7562H1294.45V39.7657H1280.24L1265.32 58.7717L1250.51 39.7657H1236.3V90.7562H1249.89ZM1314.99 91.8804C1316.64 91.8645 1318.14 91.4543 1319.47 90.6546C1320.81 89.8711 1321.87 88.7975 1322.67 87.4519C1323.45 86.0901 1323.86 84.5742 1323.88 82.8884C1323.86 81.2356 1323.45 79.754 1322.67 78.4256C1321.87 77.1143 1320.81 76.0585 1319.47 75.2922C1318.14 74.5087 1316.64 74.1169 1314.99 74.0997C1313.3 74.1156 1311.79 74.5087 1310.46 75.2922C1309.13 76.0585 1308.07 77.1143 1307.29 78.4256C1306.51 79.754 1306.11 81.2356 1306.1 82.8884C1306.11 84.5742 1306.51 86.0901 1307.29 87.4519C1308.07 88.7975 1309.13 89.8711 1310.46 90.6546C1311.79 91.4543 1313.3 91.8632 1314.99 91.8804ZM601.832 219.307V191.001H618.386C622.219 191.001 625.658 190.49 628.707 189.485C631.756 188.463 634.378 186.965 636.576 184.972C641.072 180.987 643.32 175.775 643.32 169.338C643.32 166.119 642.758 163.223 641.634 160.652C640.51 158.08 638.824 155.798 636.576 153.805C634.378 151.812 631.756 150.314 628.707 149.292C625.658 148.287 622.219 147.777 618.386 147.777H587.117V219.307H601.832ZM601.832 160.652H617.364C620.924 160.668 623.666 161.435 625.624 162.951C627.583 164.466 628.588 166.664 628.605 169.541C628.589 172.42 627.583 174.617 625.624 176.133C623.666 177.649 620.924 178.415 617.364 178.432H601.832V160.652ZM665.289 219.307L677.041 202.445H685.727V219.307H700.135V168.316H672.749C668.287 168.35 664.574 169.065 661.61 170.495C658.647 171.926 656.416 173.868 654.935 176.354C653.453 178.841 652.721 181.668 652.721 184.869C652.721 192.431 656.093 197.439 662.837 199.891L649.143 219.307H665.289ZM675.099 192.023C672.681 192.007 670.807 191.478 669.462 190.405C668.133 189.332 667.453 187.799 667.435 185.789C667.451 183.78 668.133 182.247 669.462 181.174C670.807 180.102 672.681 179.556 675.099 179.556H685.727V192.023H675.099ZM723.024 232.284V219.307H759.81V232.284H773.401V207.248H765.022V168.316H722.104L721.9 178.227C721.798 184.921 721.236 190.678 720.214 195.497C719.192 200.317 717.71 204.234 715.769 207.248H709.229V232.284H723.024ZM730.484 207.248C731.966 203.621 733.089 199.568 733.839 195.071C734.605 190.592 734.98 185.687 734.98 180.374H750.92V207.248H730.484ZM798.13 203.979C796.802 202.599 795.797 201.067 795.133 199.364C794.469 197.678 794.145 195.803 794.145 193.76C794.145 189.673 795.473 186.301 798.13 183.644C799.458 182.264 800.974 181.243 802.66 180.561C804.346 179.88 806.202 179.556 808.247 179.556C810.29 179.556 812.164 179.88 813.85 180.561C815.536 181.243 817.034 182.264 818.363 183.644C821.02 186.301 822.348 189.673 822.348 193.76C822.348 195.803 822.025 197.678 821.36 199.364C820.697 201.067 819.691 202.599 818.363 203.979C817.034 205.358 815.536 206.38 813.85 207.061C812.164 207.725 810.29 208.066 808.247 208.066C806.202 208.066 804.346 207.725 802.66 207.061C800.974 206.38 799.458 205.358 798.13 203.979ZM779.942 193.76C779.942 197.592 780.605 201.1 781.934 204.285C783.262 207.47 785.255 210.365 787.911 212.971C790.568 215.526 793.583 217.433 796.972 218.71C800.345 219.987 804.108 220.635 808.247 220.635C812.385 220.635 816.149 219.987 819.521 218.71C822.91 217.433 825.925 215.526 828.582 212.971C831.238 210.365 833.231 207.47 834.559 204.285C835.888 201.1 836.552 197.592 836.552 193.76C836.552 186.301 833.896 179.965 828.582 174.753C825.925 172.148 822.91 170.206 819.521 168.912C816.149 167.635 812.385 166.987 808.247 166.987C804.108 166.987 800.345 167.635 796.972 168.912C793.583 170.206 790.568 172.148 787.911 174.753C782.598 179.863 779.942 186.198 779.942 193.76ZM860.77 219.307V187.834L873.339 203.672H879.061L891.733 187.834V219.307H905.323V168.316H891.12L876.2 187.322L861.383 168.316H847.18V219.307H860.77ZM969.906 220.635C972.92 220.635 975.764 220.329 978.438 219.698C981.112 219.085 983.649 218.131 986.051 216.854V204.592C984.058 205.767 981.912 206.635 979.613 207.215C977.314 207.776 974.862 208.066 972.255 208.066C970.059 208.066 968.015 207.742 966.142 207.079C964.251 206.414 962.548 205.41 961.015 204.081C959.482 202.753 958.324 201.22 957.558 199.5C956.791 197.762 956.417 195.855 956.417 193.76C956.417 191.665 956.791 189.757 957.558 188.038C958.307 186.318 959.431 184.819 960.914 183.541C963.979 180.884 967.759 179.556 972.255 179.556C974.35 179.556 976.497 179.812 978.66 180.322C980.839 180.834 983.036 181.6 985.233 182.622V170.359C982.986 169.236 980.601 168.384 978.098 167.822C975.577 167.26 972.92 166.987 970.11 166.987C966.278 166.987 962.719 167.601 959.448 168.827C956.162 170.053 953.147 171.892 950.388 174.345C947.68 176.746 945.636 179.556 944.274 182.775C942.895 185.994 942.214 189.621 942.214 193.658C942.214 197.694 942.895 201.339 944.274 204.626C945.636 207.895 947.68 210.774 950.388 213.278C953.096 215.73 956.076 217.569 959.346 218.796C962.6 220.021 966.125 220.635 969.906 220.635ZM1038.88 219.307V197.336L1059.01 219.307H1077.61L1051.96 191.307L1074.14 168.316H1056.46L1038.88 186.913V168.316H1024.47V219.307H1038.88ZM1134.22 208.168C1133.05 208.168 1132.16 207.845 1131.55 207.18C1130.95 206.534 1130.64 205.563 1130.64 204.285V187.016C1130.64 180.782 1128.4 175.878 1123.9 172.301C1121.7 170.512 1119.13 169.184 1116.18 168.298C1113.24 167.43 1109.95 166.987 1106.32 166.987C1102.59 166.987 1099.17 167.328 1096.04 167.993C1092.89 168.673 1090.03 169.696 1087.42 171.074V183.133C1089.82 181.702 1092.33 180.629 1094.9 179.914C1097.49 179.198 1100.14 178.841 1102.85 178.841C1107.35 178.841 1110.72 179.641 1112.97 181.225C1115.21 182.826 1116.34 185.227 1116.34 188.446V189.979C1114.29 188.906 1112.05 188.105 1109.59 187.595C1107.14 187.067 1104.48 186.811 1101.62 186.811C1098.86 186.811 1096.31 187.169 1093.94 187.884C1091.59 188.6 1089.41 189.673 1087.42 191.103C1085.43 192.534 1083.95 194.288 1082.96 196.382C1081.99 198.46 1081.49 200.862 1081.49 203.57C1081.53 207.027 1082.33 210.042 1083.91 212.58C1085.5 215.134 1087.71 217.11 1090.52 218.506C1093.33 219.903 1096.58 220.618 1100.3 220.635C1103.92 220.635 1107.19 220.056 1110.12 218.88C1113.03 217.722 1115.62 215.986 1117.87 213.686C1118.84 215.883 1120.27 217.518 1122.2 218.608C1124.1 219.681 1126.51 220.226 1129.42 220.226C1131.1 220.226 1132.59 220.039 1133.88 219.681C1135.16 219.323 1136.26 218.796 1137.18 218.08V207.555C1136.83 207.759 1136.4 207.913 1135.89 208.015C1135.4 208.117 1134.83 208.168 1134.22 208.168ZM1116.34 204.285C1115.01 206.022 1113.37 207.333 1111.45 208.202C1109.51 209.071 1107.29 209.497 1104.79 209.497C1103 209.497 1101.44 209.258 1100.07 208.782C1098.71 208.287 1097.64 207.555 1096.87 206.567C1096.11 205.597 1095.71 204.353 1095.7 202.854C1095.71 201.458 1096.12 200.266 1096.92 199.261C1097.74 198.273 1098.9 197.524 1100.4 196.996C1101.88 196.485 1103.65 196.212 1105.71 196.212C1107.81 196.212 1109.73 196.468 1111.48 196.961C1113.24 197.473 1114.86 198.205 1116.34 199.176V204.285ZM1158.54 219.307L1175.5 197.541V219.307H1189.71V197.541L1206.57 219.307H1223.74L1201.66 192.125L1221.39 168.316H1205.14L1189.71 187.526V168.316H1175.5V187.526L1159.97 168.316H1143.72L1163.45 192.125L1141.48 219.307H1158.54ZM1240.9 232.284V219.307H1277.69V232.284H1291.28V207.248H1282.9V168.316H1239.98L1239.78 178.227C1239.68 184.921 1239.11 190.678 1238.09 195.497C1237.07 200.317 1235.59 204.234 1233.65 207.248H1227.11V232.284H1240.9ZM1248.36 207.248C1249.84 203.621 1250.97 199.568 1251.72 195.071C1252.48 190.592 1252.86 185.687 1252.86 180.374H1268.8V207.248H1248.36ZM1367.41 219.307V168.316H1353.2V219.307H1367.41ZM1326.74 219.307C1329.96 219.307 1332.82 218.881 1335.32 218.012C1337.83 217.16 1339.97 215.883 1341.76 214.197C1343.55 212.46 1344.88 210.519 1345.76 208.355C1346.63 206.209 1347.07 203.825 1347.07 201.22C1347.06 197.558 1346.17 194.373 1344.45 191.699C1342.73 189.008 1340.29 186.93 1337.16 185.466C1334.01 184.002 1330.3 183.252 1326.02 183.235H1315.6V168.316H1301.19V219.307H1326.74ZM1315.6 193.964H1323.77C1326.6 193.98 1328.78 194.612 1330.33 195.855C1331.86 197.098 1332.65 198.852 1332.66 201.117C1332.65 203.382 1331.86 205.119 1330.33 206.329C1328.78 207.538 1326.6 208.151 1323.77 208.168H1315.6V193.964ZM1395.1 219.307V187.834L1407.67 203.672H1413.39L1426.06 187.834V219.307H1439.65V168.316H1425.45L1410.53 187.322L1395.71 168.316H1381.51V219.307H1395.1Z" fill="#3FBE3C"/>
<path fill-rule="evenodd" clip-rule="evenodd" d="M107.1 234.432H65.1446V88.3888C47.0838 102.269 24.4887 110.532 0 110.532V68.5751C35.9215 68.5751 65.1446 39.3538 65.1446 3.43335H107.1V234.432Z" fill="white"/>
<path fill-rule="evenodd" clip-rule="evenodd" d="M362.553 0C311.236 0 267.411 32.6701 250.773 78.3028H290.943C305.127 53.4011 331.902 36.5619 362.553 36.5619C407.974 36.5619 444.924 73.5119 444.924 118.932C444.924 164.352 407.974 201.302 362.553 201.302V237.865C428.134 237.865 481.486 184.512 481.486 118.932C481.487 53.351 428.134 0.000317726 362.553 0Z" fill="white"/>
<path fill-rule="evenodd" clip-rule="evenodd" d="M324.549 155.494C311.054 182.614 283.057 201.302 250.764 201.302C205.345 201.302 168.393 164.352 168.393 118.932C168.393 73.5119 205.345 36.5619 250.764 36.5619V0C185.185 0 131.832 53.351 131.832 118.932C131.832 184.512 185.185 237.865 250.764 237.865C303.591 237.865 348.46 203.236 363.923 155.494H324.549Z" fill="white"/>
<path fill-rule="evenodd" clip-rule="evenodd" d="M290.931 141.311H276.11V103.566H263.954C263.873 105.731 263.811 107.41 263.769 108.608C263.73 109.807 263.68 111.199 263.626 112.786C263.435 117.432 263.064 121.213 262.518 124.127C261.97 127.041 261.273 129.423 260.424 131.269C259.602 133.146 258.719 134.632 257.776 135.729C256.831 136.825 255.88 137.776 254.922 138.586C253.827 139.507 252.397 140.244 250.631 140.792C248.866 141.34 247.162 141.615 245.52 141.615C244.232 141.615 242.932 141.565 241.619 141.463C240.305 141.361 239.525 141.311 239.277 141.311L239.278 128.846H239.729C239.838 128.846 240.03 128.858 240.305 128.887C240.578 128.916 240.852 128.932 241.126 128.932C241.837 128.932 242.569 128.859 243.322 128.715C244.075 128.571 244.698 128.253 245.191 127.762C247.024 125.916 248.25 123.599 248.866 120.816C249.481 118.03 249.927 113.911 250.2 108.457C250.309 106.435 250.418 104.127 250.528 101.532C250.637 98.9333 250.734 95.9908 250.816 92.7004H290.931V141.311Z" fill="white"/>
<path fill-rule="evenodd" clip-rule="evenodd" d="M333.917 110.75C333.834 107.491 333.068 105.037 331.617 103.392C330.166 101.747 327.908 100.924 324.842 100.924C321.995 100.924 319.654 101.705 317.821 103.264C315.987 104.82 314.96 107.316 314.741 110.75H333.917ZM348.617 119.884H314.783C315.001 123.694 316.376 126.608 318.909 128.629C321.44 130.65 325.17 131.658 330.098 131.658C333.218 131.658 336.243 131.068 339.172 129.885C342.102 128.703 344.414 127.431 346.111 126.075H347.754V138.586C344.414 139.999 341.266 141.026 338.31 141.66C335.354 142.294 332.082 142.61 328.497 142.61C319.244 142.61 312.154 140.419 307.227 136.032C302.3 131.645 299.836 125.397 299.836 117.289C299.836 109.264 302.17 102.909 306.838 98.2187C311.505 93.5313 317.903 91.1871 326.033 91.1871C333.533 91.1868 339.172 93.1847 342.95 97.1823C346.727 101.177 348.617 106.928 348.617 114.432V119.884Z" fill="white"/>
<path fill-rule="evenodd" clip-rule="evenodd" d="M396.7 103.263H381.999V141.311H367.177V103.263H352.477V92.7004H396.7V103.263Z" fill="white"/>
</svg>
