<svg width="1440" height="234" viewBox="0 0 1440 234" fill="none" xmlns="http://www.w3.org/2000/svg">
<path fill-rule="evenodd" clip-rule="evenodd" d="M105.479 230.623H64.2084V86.9529C46.4414 100.608 24.2137 108.736 0.120117 108.736L0.120429 67.4613C35.4579 67.4613 64.2081 38.7145 64.2081 3.37769H105.479V230.623Z" fill="white"/>
<path fill-rule="evenodd" clip-rule="evenodd" d="M356.781 0C306.298 0 263.187 32.1394 246.818 77.0307H286.337C300.289 52.5335 326.629 35.9681 356.781 35.9681C401.463 35.9681 437.813 72.3175 437.813 117C437.813 161.682 401.463 198.031 356.781 198.031V234C421.296 234 473.785 181.515 473.785 117C473.785 52.4842 421.296 0.000314365 356.781 0Z" fill="white"/>
<path fill-rule="evenodd" clip-rule="evenodd" d="M319.397 152.967C306.121 179.647 278.579 198.031 246.811 198.031C202.129 198.031 165.779 161.682 165.779 117C165.779 72.3175 202.129 35.9681 246.811 35.9681V0C182.3 0 129.811 52.4842 129.811 117C129.811 181.515 182.3 234 246.811 234C298.779 234 342.92 199.934 358.134 152.967H319.397Z" fill="white"/>
<path fill-rule="evenodd" clip-rule="evenodd" d="M263.205 134.058V101.214H284.563V88.4708H247.322V134.058H263.205ZM323.779 111.265C323.763 113.284 323.33 115.078 322.478 116.634C321.61 118.189 320.429 119.416 318.933 120.313C317.422 121.211 315.688 121.659 313.728 121.674C311.769 121.659 310.034 121.211 308.524 120.313C307.028 119.416 305.846 118.189 304.994 116.634C304.126 115.078 303.692 113.284 303.678 111.265C303.693 109.305 304.126 107.541 304.994 105.97C305.846 104.415 307.028 103.173 308.524 102.261C310.034 101.348 311.769 100.87 313.728 100.855C315.688 100.871 317.422 101.348 318.933 102.261C320.429 103.173 321.61 104.415 322.478 105.97C323.33 107.541 323.764 109.305 323.779 111.265ZM332.125 128.405C334.548 126.116 336.372 123.544 337.584 120.672C338.795 117.816 339.394 114.674 339.394 111.265C339.394 107.855 338.795 104.729 337.584 101.902C336.372 99.0602 334.548 96.5029 332.125 94.2143C329.702 91.926 326.965 90.2058 323.899 89.0395C320.847 87.8876 317.452 87.3046 313.728 87.3046C310.004 87.3046 306.609 87.8876 303.558 89.0395C300.492 90.2058 297.755 91.926 295.332 94.2143C292.909 96.5029 291.099 99.0602 289.888 101.902C288.676 104.729 288.063 107.855 288.063 111.265C288.063 114.674 288.676 117.816 289.888 120.672C291.099 123.544 292.909 126.116 295.332 128.405C297.755 130.693 300.492 132.398 303.558 133.535C306.609 134.656 310.004 135.225 313.728 135.225C317.452 135.225 320.847 134.656 323.899 133.535C326.965 132.398 329.702 130.693 332.125 128.405ZM358.956 144.737V134.058H386.865V144.737H401.851V121.315H394.852V88.4708H354.29L354.021 98.7012C353.886 103.951 353.452 108.453 352.72 112.222C351.987 115.991 350.925 119.027 349.534 121.315H343.791V144.737H358.956ZM365.328 121.315C366.181 118.668 366.853 115.662 367.347 112.281C367.841 108.916 368.155 105.162 368.289 101.034H379.237V121.315H365.328Z" fill="white"/>
<path fill-rule="evenodd" clip-rule="evenodd" d="M604.278 90.0599C609.019 90.0599 613.283 89.5154 617.055 88.445C620.826 87.358 624.106 85.7274 626.909 83.5353C629.713 81.3439 631.819 78.8799 633.246 76.1452C634.656 73.4093 635.37 70.4366 635.37 67.225C635.37 63.4539 634.469 60.1915 632.685 57.4389C630.884 54.6873 628.184 52.4443 624.565 50.7109C626.111 49.9294 627.537 48.8762 628.846 47.5848C630.154 46.2767 631.208 44.7307 632.006 42.9636C632.805 41.1975 633.212 39.2262 633.229 37.052C633.229 33.943 632.584 31.1395 631.31 28.6079C630.018 26.093 628.081 23.8509 625.482 21.8629C622.934 19.8748 619.926 18.3797 616.461 17.3612C612.994 16.3587 609.07 15.8487 604.687 15.8487C600.456 15.8487 596.277 16.3756 592.182 17.4457C588.071 18.5158 584.044 20.1297 580.119 22.2712V38.0716C583.738 36.1851 587.51 34.7584 591.452 33.8065C595.393 32.8379 599.488 32.3629 603.769 32.3629C607.405 32.3787 610.174 32.9065 612.094 33.9259C614.014 34.9445 614.965 36.3721 614.982 38.1731C614.982 40.1611 614.218 41.6386 612.689 42.6241C611.16 43.5927 608.866 44.0856 605.808 44.0856H594.595V58.6624H603.667C607.897 58.6624 611.092 59.189 613.215 60.2594C615.339 61.3295 616.409 62.9441 616.409 65.0846C616.409 66.818 615.815 68.3122 614.66 69.5357C613.521 70.7592 611.839 71.711 609.664 72.3561C607.473 73.0021 604.84 73.3417 601.731 73.3417C598.978 73.3417 596.158 73.0191 593.27 72.3901C590.381 71.7616 587.578 70.8777 584.876 69.706C582.175 68.5331 579.746 67.1235 577.571 65.4926V83.0254C580.986 85.3699 584.928 87.12 589.396 88.2929C593.864 89.4645 598.825 90.0599 604.278 90.0599ZM659.835 89.9574C666.664 89.9574 672.169 87.9185 676.349 83.8409C677.521 85.8289 679.168 87.3074 681.293 88.2929C683.416 89.2605 685.982 89.7534 688.989 89.7534C690.926 89.7534 692.659 89.5324 694.188 89.0744C695.716 88.6324 697.042 87.9694 698.163 87.103V74.2587C697.807 74.4627 697.382 74.6161 696.872 74.7177C696.379 74.8202 695.819 74.8708 695.207 74.8708C693.169 74.8708 692.149 73.9531 692.149 72.1182V56.4194C692.149 53.2088 691.571 50.3544 690.399 47.8228C689.226 45.3092 687.46 43.1171 685.115 41.2312C682.77 39.3457 680.069 37.9181 676.994 36.9666C673.936 35.9986 670.487 35.523 666.664 35.523C662.893 35.523 659.376 35.8286 656.131 36.4567C652.869 37.069 649.895 38.0196 647.194 39.2941V53.4638C649.488 52.1894 651.9 51.2377 654.432 50.6263C656.964 49.9982 659.58 49.6917 662.281 49.6917C663.317 49.6917 664.269 49.7263 665.135 49.8108C665.985 49.8787 666.801 50.0149 667.599 50.1843C668.381 50.3714 669.196 50.6093 670.028 50.9149C671.404 51.3738 672.475 52.2063 673.205 53.3959C673.936 54.5848 674.31 56.1138 674.31 57.9484V58.6624C672.526 57.7963 670.538 57.1333 668.347 56.692C666.155 56.2333 663.759 56.0124 661.16 56.0124C659.24 55.9445 657.337 56.1138 655.435 56.5049C653.514 56.8953 651.713 57.5244 649.998 58.3905C648.264 59.2569 646.735 60.3449 645.393 61.6869C644.051 63.0289 642.981 64.6256 642.2 66.4605C641.418 68.2951 641.01 70.3851 640.976 72.7303C640.976 75.2782 641.418 77.5888 642.284 79.6784C643.15 81.7513 644.442 83.5858 646.175 85.1668C647.908 86.7468 649.912 87.9354 652.206 88.7509C654.483 89.55 657.032 89.9574 659.835 89.9574ZM665.951 77.8267C664.575 77.8267 663.351 77.5888 662.264 77.1128C661.177 76.6378 660.311 75.9581 659.682 75.0747C659.053 74.1908 658.731 73.1376 658.713 71.9141C658.732 70.6576 659.087 69.5527 659.801 68.6187C660.514 67.7011 661.483 66.9701 662.689 66.4605C663.895 65.9506 665.255 65.696 666.767 65.696C668.244 65.696 669.621 65.8831 670.877 66.2396C672.152 66.6137 673.291 67.1741 674.31 67.939V73.3417C673.341 74.8201 672.169 75.9411 670.776 76.6887C669.4 77.4532 667.786 77.8267 665.951 77.8267ZM717.837 109.631C722.884 109.631 727.198 108.306 730.766 105.673C734.351 103.023 737.206 99.0806 739.346 93.831L762.486 36.848H743.73L732.925 68.0405L721.405 36.848H702.241L724.26 86.8989C723.206 89.5324 721.915 91.4189 720.386 92.5566C718.857 93.7125 716.954 94.273 714.678 94.239C713.199 94.239 711.755 94.0351 710.345 93.627C708.935 93.2196 707.593 92.6075 706.319 91.7921V107.287C707.949 108.051 709.734 108.629 711.653 109.037C713.59 109.427 715.646 109.631 717.837 109.631ZM794.698 89.9574C797.604 89.9574 800.407 89.6519 803.109 89.0574C805.81 88.445 808.409 87.562 810.907 86.3894V71.4042C808.971 72.4237 806.898 73.1883 804.706 73.6982C802.497 74.2077 800.152 74.4627 797.655 74.4627C795.073 74.447 792.762 73.9698 790.723 73.0361C788.667 72.0842 787.037 70.7422 785.83 68.9921C784.641 67.242 784.029 65.1691 783.995 62.74C784.029 60.3109 784.641 58.2383 785.847 56.5049C787.054 54.7718 788.684 53.4467 790.74 52.5288C792.813 51.5948 795.14 51.1192 797.757 51.1192C799.796 51.1192 801.852 51.3403 803.941 51.7989C806.014 52.2403 808.104 52.9033 810.193 53.7694V38.6827C807.951 37.6126 805.555 36.8141 803.006 36.3045C800.459 35.7776 797.757 35.523 794.903 35.523C791.08 35.523 787.496 36.1341 784.132 37.3406C780.785 38.5632 777.676 40.3641 774.821 42.7605C769.112 47.5512 766.258 54.1774 766.258 62.6385C766.258 66.8686 766.971 70.6397 768.382 73.9697C769.809 77.2832 771.915 80.1712 774.719 82.6182C777.573 85.0643 780.665 86.899 783.978 88.1225C787.308 89.346 790.876 89.9574 794.698 89.9574ZM847.503 89.9574C851.937 89.9574 855.862 89.4985 859.294 88.5984C862.709 87.6805 865.648 86.3384 868.095 84.5544V70.6916C865.393 72.1691 862.641 73.2908 859.872 74.0386C857.085 74.8032 854.282 75.1766 851.478 75.1766C848.981 75.1766 846.688 74.8877 844.598 74.2932C842.509 73.6982 840.758 72.7981 839.331 71.6086C837.904 70.4196 836.919 68.9245 836.392 67.1235H871.051V62.6385C871.051 58.6624 870.473 55.0435 869.301 51.7989C868.129 48.5368 866.362 45.6656 864.017 43.1677C861.724 40.6191 859.073 38.6996 856.083 37.4255C853.075 36.1511 849.746 35.523 846.076 35.523C841.947 35.523 838.227 36.185 834.914 37.4931C831.601 38.8181 828.695 40.7725 826.198 43.3717C823.701 45.9711 821.815 48.8932 820.558 52.1384C819.283 55.383 818.654 58.9173 818.654 62.74C818.654 66.8685 819.351 70.5891 820.727 73.9022C822.121 77.2153 824.21 80.1203 827.014 82.6182C832.62 87.5113 839.45 89.9574 847.503 89.9574ZM836.29 57.5414C836.528 55.7234 837.055 54.1774 837.87 52.8693C838.669 51.5612 839.705 50.5587 840.962 49.8448C842.22 49.1312 843.663 48.7747 845.26 48.7747C846.739 48.7904 848.081 49.1648 849.304 49.8957C850.511 50.6263 851.495 51.6458 852.226 52.9539C852.974 54.262 853.365 55.7913 853.416 57.5414H836.29ZM833.436 30.9354C835.118 30.9197 836.63 30.5104 837.955 29.7289C839.28 28.9304 840.333 27.877 841.115 26.535C841.896 25.2099 842.288 23.7148 842.304 22.0672C842.289 20.4184 841.896 18.9411 841.115 17.6158C840.333 16.3068 839.28 15.2536 837.955 14.4891C836.63 13.7076 835.118 13.3171 833.436 13.3002C831.788 13.3159 830.292 13.7076 828.967 14.4891C827.625 15.2536 826.572 16.3068 825.773 17.6158C824.992 18.9411 824.584 20.4184 824.567 22.0672C824.583 23.7148 825.009 25.2099 825.807 26.535C826.606 27.877 827.676 28.9304 829.001 29.7289C830.344 30.5104 831.822 30.9184 833.436 30.9354ZM862.794 28.3869C863.983 27.1634 864.782 25.8044 865.172 24.2923C865.563 22.7799 865.563 21.2857 865.172 19.8073C864.782 18.3118 863.983 16.9867 862.794 15.8487C861.639 14.7271 860.331 13.9793 858.835 13.6061C857.357 13.2326 855.862 13.2326 854.349 13.6061C852.838 13.9793 851.478 14.7271 850.256 15.8487C849.134 16.9867 848.386 18.3118 848.013 19.8073C847.639 21.2857 847.639 22.7799 848.013 24.2923C848.386 25.8044 849.134 27.1634 850.256 28.3869C851.478 29.5079 852.838 30.2554 854.349 30.6299C855.862 31.003 857.357 31.003 858.835 30.6299C860.331 30.2554 861.639 29.5079 862.794 28.3869ZM893.681 100.763V88.6324H925.384V100.763H942.408V74.1571H934.456V36.848H888.38L888.075 48.4688C887.921 54.4323 887.429 59.5464 886.596 63.8274C885.764 68.1091 884.557 71.5576 882.977 74.1571H876.454V100.763H893.681ZM900.918 74.1571C901.887 71.1496 902.651 67.7346 903.212 63.895C903.772 60.0729 904.13 55.8083 904.282 51.1192H916.719V74.1571H900.918ZM978.392 88.6324C981.807 88.6324 984.814 88.1734 987.43 87.2734C990.03 86.3554 992.255 85.0134 994.09 83.2293C995.976 81.3947 997.386 79.3558 998.303 77.1128C999.237 74.8708 999.696 72.4237 999.696 69.7736C999.696 66.9195 999.186 64.354 998.167 62.0601C997.148 59.7835 995.619 57.7963 993.581 56.1139C991.542 54.4323 989.18 53.1579 986.479 52.3088C983.794 51.4418 980.787 51.0173 977.474 51.0173H969.013V36.848H951.276V88.6324H978.392ZM969.013 63.6571H974.619C976.828 63.6759 978.544 64.2015 979.784 65.238C981.008 66.2741 981.636 67.718 981.653 69.5696C981.637 71.4212 981.008 72.8488 979.784 73.8513C978.544 74.8538 976.828 75.3636 974.619 75.3806H969.013V63.6571ZM1022.53 88.6324V36.848H1004.79V88.6324H1022.53ZM1078.7 88.6324V51.3233H1094.29V88.6324H1112.34V36.848H1060.65V88.6324H1078.7ZM1162.08 62.74C1162.07 65.0339 1161.57 67.0727 1160.61 68.8391C1159.62 70.6061 1158.28 71.9996 1156.58 73.0191C1154.86 74.0386 1152.89 74.5482 1150.67 74.5651C1148.44 74.5494 1146.47 74.0386 1144.75 73.0191C1143.05 71.9996 1141.71 70.6061 1140.74 68.8391C1139.76 67.0727 1139.27 65.0339 1139.25 62.74C1139.26 60.514 1139.76 58.5099 1140.74 56.7259C1141.71 54.9589 1143.05 53.5483 1144.75 52.5118C1146.47 51.4754 1148.44 50.9318 1150.67 50.9149C1152.89 50.9306 1154.86 51.4754 1156.58 52.5118C1158.28 53.5483 1159.62 54.9589 1160.61 56.7259C1161.57 58.5099 1162.07 60.514 1162.08 62.74ZM1171.56 82.2099C1174.32 79.6108 1176.39 76.6887 1177.76 73.4263C1179.14 70.1817 1179.82 66.6136 1179.82 62.74C1179.82 58.8664 1179.14 55.3154 1177.76 52.1048C1176.39 48.8762 1174.32 45.9711 1171.56 43.3717C1168.81 40.7725 1165.7 38.8181 1162.22 37.4931C1158.75 36.185 1154.9 35.523 1150.67 35.523C1146.44 35.523 1142.58 36.185 1139.11 37.4931C1135.63 38.8181 1132.52 40.7725 1129.77 43.3717C1127.02 45.9711 1124.96 48.8762 1123.58 52.1048C1122.21 55.3154 1121.51 58.8664 1121.51 62.74C1121.51 66.6136 1122.21 70.1817 1123.58 73.4263C1124.96 76.6887 1127.02 79.6108 1129.77 82.2099C1132.52 84.8094 1135.63 86.7468 1139.11 88.0379C1142.58 89.3123 1146.44 89.9574 1150.67 89.9574C1154.9 89.9574 1158.75 89.3123 1162.22 88.0379C1165.7 86.7468 1168.81 84.8094 1171.56 82.2099ZM1214.38 89.9574C1218.3 89.9574 1221.92 89.346 1225.22 88.1055C1228.5 86.882 1231.45 85.0134 1234.05 82.5158C1236.65 80.0188 1238.6 77.1816 1239.93 74.0037C1241.24 70.8271 1241.9 67.276 1241.9 63.3515C1241.9 59.8859 1241.39 56.7768 1240.35 54.0243C1239.34 51.2723 1237.77 48.8762 1235.68 46.8373C1231.5 42.7606 1226.1 40.7216 1219.47 40.7216C1217.18 40.7373 1214.95 41.0611 1212.76 41.7072C1210.57 42.3522 1208.53 43.2532 1206.61 44.3912C1204.71 45.5292 1203.01 46.8552 1201.53 48.3663C1201.86 45.2742 1202.84 42.7942 1204.47 40.891C1206.12 38.9885 1208.29 37.5446 1211.01 36.5421C1212.35 36.0156 1213.61 35.5736 1214.8 35.234C1215.97 34.8936 1217.23 34.588 1218.56 34.3164C1219.86 34.0615 1221.41 33.7726 1223.14 33.484L1235.78 31.241V15.4407L1213.66 20.3338C1204.34 22.4233 1197.35 26.4843 1192.7 32.5154C1188.06 38.5465 1185.73 46.5823 1185.73 56.6235C1185.73 66.6137 1188.18 74.6668 1193.07 80.7834C1195.52 83.8409 1198.53 86.1345 1202.08 87.6635C1205.64 89.1929 1209.74 89.9574 1214.38 89.9574ZM1224.16 64.6765C1224.16 66.6985 1223.74 68.4825 1222.94 70.0456C1222.12 71.6086 1220.97 72.8321 1219.49 73.7151C1218 74.5991 1216.23 75.0581 1214.17 75.0747C1212.12 75.059 1210.28 74.5482 1208.65 73.4941C1207.04 72.4576 1205.75 70.9632 1204.81 69.0091C1203.86 67.0389 1203.39 64.6935 1203.37 61.9249V60.1914C1205 58.5608 1206.78 57.3373 1208.7 56.5219C1210.64 55.7064 1212.7 55.2984 1214.89 55.2984C1217.81 55.3323 1220.09 56.1654 1221.7 57.813C1223.33 59.4609 1224.15 61.7375 1224.16 64.6765ZM1265.75 89.9574C1272.58 89.9574 1278.09 87.9185 1282.27 83.8409C1283.44 85.8289 1285.09 87.3074 1287.21 88.2929C1289.34 89.2605 1291.9 89.7534 1294.91 89.7534C1296.84 89.7534 1298.58 89.5324 1300.11 89.0744C1301.64 88.6324 1302.96 87.9694 1304.08 87.103V74.2587C1303.73 74.4627 1303.3 74.6161 1302.79 74.7177C1302.3 74.8202 1301.74 74.8708 1301.13 74.8708C1299.09 74.8708 1298.07 73.9531 1298.07 72.1182V56.4194C1298.07 53.2088 1297.49 50.3544 1296.32 47.8228C1295.15 45.3092 1293.38 43.1171 1291.03 41.2312C1288.69 39.3457 1285.99 37.9181 1282.91 36.9666C1279.86 35.9986 1276.41 35.523 1272.58 35.523C1268.81 35.523 1265.3 35.8286 1262.05 36.4567C1258.79 37.069 1255.81 38.0196 1253.11 39.2941V53.4638C1255.41 52.1894 1257.82 51.2377 1260.35 50.6263C1262.88 49.9982 1265.5 49.6917 1268.2 49.6917C1269.24 49.6917 1270.19 49.7263 1271.05 49.8108C1271.9 49.8787 1272.72 50.0149 1273.52 50.1843C1274.3 50.3714 1275.12 50.6093 1275.95 50.9149C1277.32 51.3738 1278.39 52.2063 1279.12 53.3959C1279.86 54.5848 1280.23 56.1138 1280.23 57.9484V58.6624C1278.45 57.7963 1276.46 57.1333 1274.27 56.692C1272.07 56.2333 1269.68 56.0124 1267.08 56.0124C1265.16 55.9445 1263.26 56.1138 1261.35 56.5049C1259.43 56.8953 1257.63 57.5244 1255.92 58.3905C1254.18 59.2569 1252.65 60.3449 1251.31 61.6869C1249.97 63.0289 1248.9 64.6256 1248.12 66.4605C1247.34 68.2951 1246.93 70.3851 1246.9 72.7303C1246.9 75.2782 1247.34 77.5888 1248.2 79.6784C1249.07 81.7513 1250.36 83.5858 1252.09 85.1668C1253.83 86.7468 1255.83 87.9354 1258.13 88.7509C1260.4 89.55 1262.95 89.9574 1265.75 89.9574ZM1271.87 77.8267C1270.49 77.8267 1269.27 77.5888 1268.18 77.1128C1267.1 76.6378 1266.23 75.9581 1265.6 75.0747C1264.97 74.1908 1264.65 73.1376 1264.63 71.9141C1264.65 70.6576 1265.01 69.5527 1265.72 68.6187C1266.43 67.7011 1267.4 66.9701 1268.61 66.4605C1269.81 65.9506 1271.17 65.696 1272.69 65.696C1274.16 65.696 1275.54 65.8831 1276.8 66.2396C1278.07 66.6137 1279.21 67.1741 1280.23 67.939V73.3417C1279.26 74.8201 1278.09 75.9411 1276.7 76.6887C1275.32 77.4532 1273.71 77.8267 1271.87 77.8267ZM1360.66 88.6324V36.848H1342.62V58.4584C1341.75 58.9173 1340.8 59.2569 1339.76 59.4609C1338.72 59.6819 1337.57 59.7834 1336.3 59.7834C1333.9 59.7834 1332.1 59.189 1330.88 58.0173C1329.67 56.8275 1329.06 55.0435 1329.06 52.6483V36.848H1311.01V54.6873C1311.03 57.7105 1311.46 60.3449 1312.27 62.57C1313.1 64.813 1314.24 66.6815 1315.69 68.2106C1317.15 69.7397 1318.83 70.9632 1320.75 71.8802C1322.65 72.7981 1324.71 73.4602 1326.9 73.8682C1329.11 74.2766 1331.35 74.4627 1333.64 74.4627C1335.33 74.4627 1336.91 74.3611 1338.4 74.1571C1339.88 73.9531 1341.29 73.6473 1342.62 73.2402V88.6324H1360.66ZM1388.69 86.8989C1389.76 85.8288 1390.56 84.6569 1391.07 83.3828C1391.6 82.1083 1391.85 80.7317 1391.85 79.2542C1391.85 77.7758 1391.6 76.4001 1391.07 75.1427C1390.56 73.8682 1389.76 72.7302 1388.69 71.711C1387.67 70.6397 1386.53 69.8415 1385.26 69.3316C1384 68.805 1382.63 68.5501 1381.15 68.5501C1379.67 68.5501 1378.29 68.805 1377.02 69.3316C1375.75 69.8415 1374.57 70.6397 1373.5 71.711C1372.48 72.7302 1371.72 73.8682 1371.21 75.1427C1370.7 76.4001 1370.44 77.7758 1370.44 79.2542C1370.44 82.2099 1371.46 84.7584 1373.5 86.8989C1374.57 87.9693 1375.75 88.7685 1377.02 89.2775C1378.29 89.805 1379.67 90.0599 1381.15 90.0599C1382.63 90.0599 1384 89.805 1385.26 89.2775C1386.53 88.7685 1387.67 87.9693 1388.69 86.8989ZM599.589 216.871V161.62H624.666V216.871H643.015V145.514H581.24V216.871H599.589ZM693.373 190.978C693.357 193.272 692.863 195.311 691.895 197.077C690.91 198.844 689.568 200.238 687.868 201.257C686.152 202.277 684.182 202.786 681.956 202.803C679.731 202.788 677.759 202.277 676.043 201.257C674.345 200.238 673.003 198.844 672.034 197.077C671.049 195.311 670.556 193.272 670.539 190.978C670.555 188.752 671.049 186.748 672.034 184.964C673.003 183.197 674.345 181.787 676.043 180.75C677.759 179.714 679.731 179.17 681.956 179.153C684.182 179.169 686.152 179.714 687.868 180.75C689.568 181.787 690.91 183.197 691.895 184.964C692.863 186.748 693.356 188.752 693.373 190.978ZM702.853 210.448C705.606 207.849 707.679 204.927 709.054 201.664C710.43 198.42 711.11 194.852 711.11 190.978C711.11 187.105 710.43 183.554 709.054 180.343C707.679 177.114 705.606 174.209 702.853 171.61C700.101 169.011 696.992 167.056 693.509 165.731C690.043 164.423 686.186 163.761 681.956 163.761C677.726 163.761 673.869 164.423 670.402 165.731C666.92 167.056 663.811 169.011 661.058 171.61C658.307 174.209 656.251 177.114 654.874 180.343C653.498 183.554 652.801 187.105 652.801 190.978C652.801 194.852 653.498 198.42 654.874 201.664C656.251 204.927 658.307 207.849 661.058 210.448C663.811 213.048 666.92 214.985 670.402 216.276C673.869 217.551 677.726 218.196 681.956 218.196C686.186 218.196 690.043 217.551 693.509 216.276C696.992 214.985 700.101 213.048 702.853 210.448ZM745.667 218.196C749.591 218.196 753.21 217.584 756.506 216.344C759.786 215.121 762.741 213.252 765.341 210.754C767.94 208.257 769.894 205.42 771.22 202.242C772.528 199.065 773.191 195.514 773.191 191.59C773.191 188.124 772.681 185.015 771.645 182.262C770.625 179.511 769.062 177.114 766.971 175.075C762.792 170.999 757.389 168.96 750.764 168.96C748.47 168.975 746.244 169.299 744.053 169.945C741.861 170.591 739.823 171.491 737.903 172.629C736 173.767 734.301 175.093 732.822 176.605C733.146 173.512 734.131 171.033 735.762 169.129C737.41 167.227 739.585 165.783 742.303 164.781C743.645 164.254 744.902 163.812 746.092 163.472C747.264 163.132 748.521 162.826 749.846 162.555C751.154 162.3 752.7 162.011 754.434 161.722L767.074 159.479V143.679L744.953 148.572C735.626 150.662 728.643 154.723 723.988 160.754C719.35 166.785 717.022 174.821 717.022 184.862C717.022 194.852 719.469 202.905 724.362 209.021C726.808 212.079 729.816 214.373 733.367 215.902C736.934 217.431 741.029 218.196 745.667 218.196ZM755.453 192.915C755.453 194.937 755.028 196.721 754.23 198.284C753.414 199.847 752.259 201.07 750.781 201.953C749.286 202.837 747.519 203.296 745.463 203.313C743.407 203.298 741.572 202.786 739.941 201.732C738.327 200.696 737.036 199.202 736.101 197.247C735.15 195.277 734.675 192.932 734.658 190.163V188.43C736.289 186.799 738.073 185.576 739.992 184.76C741.93 183.945 743.985 183.537 746.177 183.537C749.099 183.57 751.375 184.404 752.989 186.052C754.621 187.699 755.436 189.976 755.453 192.915ZM797.044 218.196C803.873 218.196 809.378 216.157 813.558 212.079C814.73 214.067 816.377 215.545 818.502 216.531C820.625 217.499 823.191 217.992 826.197 217.992C828.135 217.992 829.868 217.771 831.397 217.313C832.925 216.871 834.252 216.208 835.373 215.342V202.497C835.016 202.701 834.591 202.854 834.081 202.956C833.589 203.058 833.028 203.109 832.416 203.109C830.378 203.109 829.358 202.191 829.358 200.356V184.658C829.358 181.447 828.78 178.593 827.608 176.061C826.435 173.547 824.669 171.355 822.324 169.47C819.979 167.584 817.278 166.156 814.203 165.205C811.145 164.237 807.696 163.761 803.874 163.761C800.102 163.761 796.585 164.067 793.339 164.695C790.078 165.307 787.104 166.258 784.403 167.532V181.702C786.697 180.428 789.109 179.476 791.641 178.865C794.173 178.236 796.789 177.93 799.49 177.93C800.526 177.93 801.478 177.964 802.344 178.049C803.194 178.117 804.01 178.253 804.808 178.422C805.59 178.61 806.405 178.848 807.237 179.153C808.613 179.612 809.684 180.444 810.414 181.634C811.145 182.823 811.519 184.352 811.519 186.187V186.901C809.735 186.034 807.747 185.372 805.556 184.93C803.364 184.472 800.968 184.251 798.369 184.251C796.449 184.183 794.546 184.352 792.643 184.743C790.723 185.134 788.922 185.763 787.207 186.629C785.474 187.495 783.945 188.583 782.603 189.925C781.261 191.267 780.19 192.864 779.409 194.699C778.627 196.534 778.219 198.623 778.185 200.969C778.185 203.516 778.627 205.827 779.494 207.917C780.36 209.989 781.651 211.824 783.384 213.405C785.117 214.985 787.121 216.174 789.415 216.989C791.692 217.789 794.24 218.196 797.044 218.196ZM803.16 206.065C801.784 206.065 800.56 205.827 799.473 205.351C798.386 204.876 797.52 204.196 796.891 203.313C796.262 202.429 795.94 201.376 795.922 200.152C795.941 198.896 796.296 197.791 797.01 196.857C797.723 195.939 798.691 195.208 799.898 194.699C801.104 194.189 802.464 193.934 803.976 193.934C805.453 193.934 806.83 194.121 808.087 194.478C809.361 194.852 810.5 195.413 811.519 196.177V201.58C810.551 203.058 809.378 204.179 807.985 204.927C806.609 205.691 804.995 206.065 803.16 206.065ZM891.948 216.871V165.086H873.905V186.697C873.039 187.156 872.087 187.495 871.051 187.699C870.015 187.92 868.86 188.022 867.585 188.022C865.189 188.022 863.388 187.427 862.166 186.255C860.959 185.066 860.348 183.282 860.348 180.886V165.086H842.304V182.925C842.32 185.949 842.746 188.583 843.562 190.808C844.394 193.051 845.532 194.92 846.976 196.449C848.438 197.978 850.119 199.202 852.04 200.118C853.942 201.036 855.998 201.698 858.189 202.106C860.398 202.515 862.642 202.701 864.934 202.701C866.617 202.701 868.197 202.599 869.692 202.395C871.17 202.191 872.58 201.885 873.905 201.478V216.871H891.948ZM949.033 218.196C953.009 218.196 956.594 217.789 959.805 216.989C962.999 216.174 965.802 214.985 968.197 213.405C970.644 211.773 972.479 209.922 973.702 207.832C974.925 205.759 975.537 203.465 975.537 200.969C975.504 198.947 975.044 197.129 974.143 195.497C973.243 193.867 972.054 192.508 970.61 191.42C969.166 190.315 967.62 189.568 965.955 189.144C967.467 188.702 968.792 188.005 969.964 187.037C971.12 186.085 972.037 184.879 972.683 183.435C973.345 181.974 973.686 180.275 973.702 178.338C973.702 174.158 971.459 170.693 966.975 167.94C964.782 166.565 962.32 165.528 959.567 164.814C956.814 164.118 953.774 163.761 950.461 163.761C946.383 163.761 942.628 164.118 939.213 164.831C935.781 165.545 932.672 166.615 929.869 168.042V181.091C932.265 179.918 934.864 179.052 937.65 178.474C940.419 177.896 943.375 177.624 946.484 177.624C949.39 177.624 951.582 177.93 953.043 178.525C954.521 179.136 955.251 180.02 955.251 181.192C955.251 183.435 953.417 184.556 949.747 184.556H939.247V196.585H949.951C952.142 196.585 953.791 196.857 954.912 197.418C956.016 197.978 956.576 198.827 956.576 199.949C956.576 202.803 953.212 204.23 946.484 204.23C943.069 204.23 939.859 203.89 936.851 203.227C933.845 202.548 931.041 201.529 928.442 200.152V214.118C931.143 215.495 934.218 216.514 937.667 217.193C941.116 217.856 944.904 218.196 949.033 218.196ZM1028.85 216.871V195.463L1046.38 216.871H1068.91L1045.06 188.328L1065.55 165.086H1044.24L1028.85 183.435V165.086H1010.81V216.871H1028.85ZM1112.54 190.978C1112.53 193.272 1112.03 195.311 1111.06 197.077C1110.08 198.844 1108.74 200.238 1107.04 201.257C1105.32 202.277 1103.35 202.786 1101.12 202.803C1098.9 202.788 1096.93 202.277 1095.21 201.257C1093.51 200.238 1092.17 198.844 1091.2 197.077C1090.22 195.311 1089.72 193.272 1089.71 190.978C1089.72 188.752 1090.22 186.748 1091.2 184.964C1092.17 183.197 1093.51 181.787 1095.21 180.75C1096.93 179.714 1098.9 179.17 1101.12 179.153C1103.35 179.169 1105.32 179.714 1107.04 180.75C1108.74 181.787 1110.08 183.197 1111.06 184.964C1112.03 186.748 1112.52 188.752 1112.54 190.978ZM1122.02 210.448C1124.77 207.849 1126.85 204.927 1128.22 201.664C1129.6 198.42 1130.28 194.852 1130.28 190.978C1130.28 187.105 1129.6 183.554 1128.22 180.343C1126.85 177.114 1124.77 174.209 1122.02 171.61C1119.27 169.011 1116.16 167.056 1112.68 165.731C1109.21 164.423 1105.35 163.761 1101.12 163.761C1096.89 163.761 1093.04 164.423 1089.57 165.731C1086.09 167.056 1082.98 169.011 1080.23 171.61C1077.48 174.209 1075.42 177.114 1074.04 180.343C1072.67 183.554 1071.97 187.105 1071.97 190.978C1071.97 194.852 1072.67 198.42 1074.04 201.664C1075.42 204.927 1077.48 207.849 1080.23 210.448C1082.98 213.048 1086.09 214.985 1089.57 216.276C1093.04 217.551 1096.89 218.196 1101.12 218.196C1105.35 218.196 1109.21 217.551 1112.68 216.276C1116.16 214.985 1119.27 213.048 1122.02 210.448ZM1155.36 216.871L1170.24 196.177V216.871H1187.98V196.177L1202.86 216.871H1223.96L1203.37 189.348L1220.9 165.086H1200.82L1187.98 183.639V165.086H1170.24V183.639L1157.29 165.086H1137.31L1154.85 189.348L1134.25 216.871H1155.36ZM1249.24 216.871V197.605H1265.35V216.871H1283.39V165.086H1265.35V183.129H1249.24V165.086H1231.2V216.871H1249.24ZM1322.94 216.871C1326.36 216.871 1329.36 216.412 1331.98 215.512C1334.58 214.594 1336.81 213.252 1338.64 211.468C1340.53 209.633 1341.94 207.594 1342.85 205.351C1343.79 203.109 1344.25 200.662 1344.25 198.012C1344.25 195.158 1343.74 192.592 1342.72 190.299C1341.7 188.022 1340.17 186.034 1338.13 184.352C1336.09 182.67 1333.73 181.396 1331.03 180.547C1328.34 179.68 1325.34 179.256 1322.02 179.256H1313.56V165.086H1295.83V216.871H1322.94ZM1313.56 191.895H1319.17C1321.38 191.914 1323.09 192.44 1324.33 193.476C1325.56 194.513 1326.19 195.956 1326.2 197.808C1326.19 199.66 1325.56 201.087 1324.33 202.09C1323.09 203.092 1321.38 203.602 1319.17 203.619H1313.56V191.895ZM1367.08 216.871V165.086H1349.34V216.871H1367.08ZM1396.54 216.871V189.144L1406.12 202.395H1413.26L1422.84 189.144V216.871H1439.86V165.086H1422.03L1409.69 182.11L1397.36 165.086H1379.52V216.871H1396.54Z" fill="#2BA941"/>
<path fill-rule="evenodd" clip-rule="evenodd" d="M738.77 28.3076C739.654 27.4236 740.313 26.4557 740.735 25.4032C741.17 24.351 741.38 23.214 741.38 21.993C741.38 20.7732 741.17 19.6362 740.735 18.5979C740.313 17.5457 739.654 16.6054 738.77 15.7632C737.929 14.8792 736.989 14.22 735.936 13.7994C734.898 13.3643 733.761 13.1541 732.54 13.1541C731.32 13.1541 730.183 13.3643 729.131 13.7994C728.078 14.22 727.111 14.8792 726.227 15.7632C725.385 16.6054 724.754 17.5457 724.332 18.5979C723.911 19.6362 723.701 20.7732 723.701 21.993C723.701 24.4346 724.542 26.5396 726.227 28.3076C727.111 29.1913 728.078 29.8509 729.131 30.2715C730.183 30.7063 731.32 30.9175 732.54 30.9175C733.761 30.9175 734.898 30.7063 735.936 30.2715C736.989 29.8509 737.929 29.1913 738.77 28.3076Z" fill="#2BA941"/>
</svg>
