<svg width="1442" height="238" viewBox="0 0 1442 238" fill="none" xmlns="http://www.w3.org/2000/svg">
<path fill-rule="evenodd" clip-rule="evenodd" d="M353.202 0C303.208 0 260.513 31.8279 244.305 76.2839H283.438C297.257 52.0241 323.341 35.6192 353.201 35.6192C397.452 35.6192 433.449 71.6162 433.449 115.865C433.449 160.114 397.452 196.111 353.201 196.111L353.202 231.731C417.092 231.731 469.068 179.754 469.068 115.865C469.068 51.9751 417.092 0.000310001 353.202 0Z" fill="white"/>
<path fill-rule="evenodd" clip-rule="evenodd" d="M223.632 136.805V117.426L240.232 93.6056H227.889L218.2 107.861L208.573 93.6056H195.922L212.523 117.673V136.805H223.632ZM278 136.805V127.054H255.783V118.6H273.063V109.219H255.783V103.356H277.507V93.6056H244.675V136.805H278ZM292.502 136.805L296.143 127.671H312.188L315.829 136.805H327.74L309.596 93.3585H298.92L280.776 136.805H292.502ZM304.166 107.244L308.67 118.784H299.661L304.166 107.244ZM343.6 136.805V120.327H348.043L360.262 136.805H373.037L359.954 119.094C361.712 118.404 363.214 117.468 364.458 116.285C365.713 115.102 366.67 113.714 367.339 112.13C368.007 110.546 368.336 108.818 368.347 106.936C368.347 104.991 367.997 103.213 367.287 101.618C366.578 100.024 365.507 98.6047 364.088 97.3699C362.7 96.1054 361.064 95.159 359.182 94.5421C357.3 93.9147 355.171 93.6056 352.795 93.6056H332.491V136.805H343.6ZM343.6 102.986H352.178C353.71 102.996 354.904 103.388 355.778 104.138C356.652 104.879 357.105 105.897 357.115 107.183C357.105 108.458 356.652 109.455 355.778 110.166C354.904 110.885 353.71 111.245 352.178 111.256H343.6V102.986ZM392.723 137.668C395.315 137.668 397.67 137.36 399.799 136.732C401.918 136.115 403.801 135.169 405.436 133.904C407.071 132.639 408.305 131.168 409.128 129.492C409.962 127.815 410.373 125.912 410.373 123.783C410.373 121.932 410.084 120.286 409.498 118.836C408.912 117.396 408.027 116.162 406.855 115.144C405.682 114.125 404.284 113.189 402.649 112.325C401.023 111.471 399.171 110.701 397.105 110.021C396.497 109.836 395.808 109.63 395.058 109.425C394.317 109.209 393.587 109.003 392.898 108.808C392.198 108.613 391.632 108.438 391.18 108.294L389.205 107.615C388.567 107.337 388.104 107.039 387.827 106.72C387.549 106.401 387.405 106.041 387.415 105.64C387.415 104.683 387.888 103.974 388.845 103.5C389.792 103.027 391.211 102.801 393.093 102.801C394.328 102.801 395.582 102.903 396.847 103.12C398.123 103.325 399.418 103.634 400.745 104.035C403.399 104.838 405.682 105.825 407.596 106.998V96.3209C405.343 95.1177 402.998 94.223 400.56 93.6266C398.123 93.0404 395.592 92.7416 392.97 92.7416C390.367 92.7416 388.032 93.0299 385.945 93.5957C383.857 94.1608 382.077 94.9947 380.596 96.0948C379.115 97.195 377.984 98.5529 377.192 100.157C376.4 101.773 376.009 103.613 375.999 105.702C376.008 106.977 376.174 108.16 376.471 109.25C376.77 110.34 377.13 111.276 377.542 112.058C377.86 112.572 378.272 113.076 378.765 113.559C379.259 114.043 379.773 114.496 380.308 114.917C380.843 115.329 381.316 115.699 381.738 116.007C382.077 116.224 382.479 116.44 382.951 116.665C383.415 116.882 383.959 117.118 384.576 117.365L387.415 118.476L390.563 119.402L394.451 120.574C394.708 120.657 395.026 120.76 395.387 120.872C395.756 120.996 396.117 121.119 396.456 121.263C396.796 121.397 397.053 121.541 397.228 121.685C397.557 121.901 397.855 122.127 398.102 122.354C398.349 122.58 398.544 122.837 398.678 123.135C398.822 123.423 398.894 123.794 398.894 124.215C398.894 125.357 398.338 126.21 397.238 126.766C396.127 127.332 394.481 127.609 392.291 127.609C390.902 127.609 389.473 127.465 387.991 127.187C386.51 126.899 384.978 126.468 383.404 125.882C381.83 125.295 380.432 124.658 379.197 123.969C377.963 123.279 376.893 122.518 375.999 121.685V133.04C378.251 134.583 380.771 135.735 383.548 136.507C386.335 137.277 389.39 137.668 392.723 137.668Z" fill="white"/>
<path fill-rule="evenodd" clip-rule="evenodd" d="M104.338 228.386H63.4647V86.1093C45.8696 99.6318 23.8571 107.682 0 107.682V66.8068C34.9951 66.8068 63.4647 38.339 63.4647 3.34485H104.338V228.386Z" fill="white"/>
<path fill-rule="evenodd" clip-rule="evenodd" d="M316.18 151.484C303.032 177.905 275.758 196.111 244.298 196.111C200.05 196.111 164.051 160.114 164.051 115.865C164.051 71.6162 200.05 35.6192 244.298 35.6192V0C180.41 0 128.433 51.9751 128.433 115.865C128.433 179.754 180.41 231.731 244.298 231.731C295.762 231.731 339.474 197.995 354.538 151.484H316.18Z" fill="white"/>
<path fill-rule="evenodd" clip-rule="evenodd" d="M587.739 88.6082L593.759 73.5062H620.29L626.311 88.6082H646.006L616.004 16.77H598.351L568.35 88.6082H587.739ZM607.025 39.73L614.474 58.8118H599.576L607.025 39.73ZM666.007 89.935C668.047 89.935 669.901 89.7812 671.585 89.4588C673.251 89.1523 674.731 88.659 676.007 87.9956V73.8119C675.547 74.0667 675.054 74.2538 674.544 74.3558C674.034 74.4752 673.507 74.5264 672.945 74.5264C670.496 74.5264 669.272 73.1996 669.272 70.5466V17.1777H651.21V74.8321C651.21 79.8832 652.435 83.6591 654.9 86.176C657.349 88.6758 661.058 89.935 666.007 89.935ZM711.416 89.0158L720.191 62.383L729.273 89.0158H744.784L762.029 36.7701H744.273L736.212 63.1993L727.742 36.5664H713.456L705.191 63.1993L696.925 36.7701H679.067L696.007 89.0158H711.416ZM783.967 89.935C790.805 89.935 796.315 87.8936 800.499 83.8122C801.673 85.8024 803.322 87.2814 805.448 88.2681C807.574 89.2375 810.142 89.7304 813.152 89.7304C815.091 89.7304 816.826 89.5097 818.356 89.0502C819.887 88.6082 821.214 87.9447 822.336 87.0774V74.2204C821.979 74.4243 821.554 74.5772 821.044 74.6792C820.55 74.7812 819.989 74.8321 819.376 74.8321C817.336 74.8321 816.316 73.9138 816.316 72.0774V56.3627C816.316 53.1483 815.738 50.2904 814.564 47.7571C813.391 45.2396 811.622 43.0464 809.274 41.1578C806.927 39.2702 804.224 37.8414 801.145 36.8888C798.084 35.9197 794.631 35.4432 790.805 35.4432C787.029 35.4432 783.509 35.7499 780.26 36.3792C776.995 36.9917 774.018 37.9434 771.314 39.2194V53.4032C773.611 52.1282 776.026 51.1755 778.56 50.563C781.094 49.9337 783.713 49.628 786.417 49.628C787.454 49.628 788.407 49.6615 789.274 49.7467C790.125 49.8152 790.941 49.9504 791.74 50.1209C792.522 50.3081 793.339 50.5462 794.172 50.8522C795.549 51.3116 796.621 52.1446 797.353 53.3353C798.084 54.526 798.458 56.0559 798.458 57.8935V58.6078C796.673 57.7398 794.682 57.077 792.489 56.6343C790.295 56.1755 787.896 55.9542 785.295 55.9542C783.373 55.8863 781.468 56.0558 779.563 56.448C777.642 56.8389 775.838 57.4682 774.12 58.3356C772.386 59.2027 770.855 60.2914 769.512 61.6353C768.169 62.9788 767.097 64.5772 766.314 66.4137C765.532 68.2504 765.124 70.3426 765.09 72.6896C765.09 75.2407 765.532 77.5535 766.4 79.6451C767.267 81.7206 768.56 83.5574 770.294 85.139C772.029 86.7206 774.036 87.9103 776.331 88.7269C778.611 89.5264 781.162 89.935 783.967 89.935ZM790.091 77.7916C788.713 77.7916 787.489 77.5535 786.4 77.0773C785.311 76.6009 784.444 75.9208 783.815 75.037C783.185 74.1519 782.862 73.0976 782.845 71.8734C782.861 70.6142 783.22 69.5087 783.934 68.5738C784.649 67.6555 785.618 66.9242 786.825 66.4137C788.033 65.9031 789.393 65.6482 790.907 65.6482C792.387 65.6482 793.764 65.8355 795.023 66.1923C796.298 66.5668 797.438 67.1282 798.458 67.8936V73.3013C797.489 74.7812 796.315 75.9044 794.92 76.6521C793.543 77.4175 791.927 77.7916 790.091 77.7916ZM839.99 109.629C845.041 109.629 849.361 108.303 852.933 105.666C856.521 103.013 859.379 99.0679 861.521 93.8122L884.686 36.7701H865.91L855.093 67.9955L843.562 36.7701H824.377L846.419 86.8734C845.365 89.5096 844.072 91.3972 842.541 92.5371C841.01 93.6934 839.106 94.2549 836.827 94.2208C835.348 94.2208 833.901 94.0168 832.49 93.6082C831.079 93.2006 829.735 92.588 828.459 91.7717V107.282C830.092 108.048 831.878 108.626 833.799 109.034C835.739 109.425 837.797 109.629 839.99 109.629ZM911.727 89.935C915.349 89.935 918.615 89.5432 921.506 88.7787C924.38 88.0133 926.88 86.8734 928.973 85.343C931.115 83.761 932.731 81.9754 933.802 79.9685C934.874 77.9448 935.402 75.6994 935.402 73.1996C935.402 70.1898 934.857 67.6211 933.718 65.5122C932.595 63.4032 930.86 61.6353 928.513 60.2062C926.166 58.7774 923.156 57.6043 919.482 56.6684C918.887 56.5323 918.156 56.3628 917.306 56.1755C916.455 55.9883 915.622 55.801 914.789 55.6314C913.955 55.4445 913.275 55.274 912.748 55.1376L910.298 54.4234C909.482 54.1519 908.887 53.8118 908.513 53.4032C908.138 52.9779 907.951 52.5358 907.951 52.077C907.951 51.2097 908.427 50.5462 909.397 50.1041C910.384 49.6447 911.829 49.4234 913.768 49.4234C917.084 49.4234 920.299 49.8828 923.445 50.8178C926.575 51.7369 929.636 53.1483 932.646 55.0356V40.3413C927.238 37.0761 920.707 35.4432 913.053 35.4432C908.104 35.4618 903.853 36.1244 900.315 37.4338C896.778 38.7597 894.057 40.6481 892.151 43.1139C890.264 45.5629 889.295 48.5225 889.278 51.9744C889.278 54.3214 889.584 56.3628 890.179 58.0805C890.791 59.8152 891.676 61.21 892.849 62.281C895.298 64.4244 899.482 66.3628 905.4 68.0975C905.893 68.2336 906.489 68.3865 907.169 68.557C907.849 68.7266 908.547 68.9138 909.262 69.101C909.958 69.2882 910.622 69.4752 911.234 69.6283C911.829 69.7979 912.306 69.934 912.646 70.036L914.993 70.8522C915.843 71.21 916.438 71.5668 916.762 71.9577C917.102 72.3322 917.254 72.7408 917.238 73.1996C917.238 74.0666 916.711 74.7136 915.639 75.1213C914.584 75.5466 913.002 75.7506 910.911 75.7506C908.819 75.7506 906.762 75.6151 904.72 75.3593C902.696 75.0877 900.706 74.6792 898.768 74.1178C896.829 73.557 895.111 72.9445 893.631 72.2811C892.135 71.6176 890.86 70.9034 889.788 70.1386V85.343C892.288 86.8734 895.366 88.0133 899.04 88.7787C902.696 89.5432 906.931 89.935 911.727 89.935ZM988.362 56.1588C989.484 54.628 990.759 53.4717 992.205 52.7064C993.633 51.941 995.249 51.5665 997.035 51.5665C998.446 51.551 999.705 51.8389 1000.83 52.4338C1001.95 53.0119 1002.83 53.9302 1003.48 55.1888C1004.14 56.448 1004.47 58.0972 1004.48 60.1377V88.6082H1022.55V56.7704C1022.53 52.3994 1021.8 48.6245 1020.32 45.4269C1018.85 42.2466 1016.75 39.7975 1013.99 38.0627C1011.24 36.3447 1007.94 35.4609 1004.08 35.4432C1001.07 35.4432 998.26 36.0391 995.64 37.2122C993.038 38.4029 990.606 40.1885 988.362 42.5867V36.7701H970.3V88.6082H988.362V56.1588ZM1059.69 89.935C1064.13 89.935 1068.06 89.4756 1071.49 88.5738C1074.91 87.6556 1077.85 86.312 1080.3 84.5264V70.6485C1077.6 72.1282 1074.84 73.2504 1072.07 73.9991C1069.28 74.7645 1066.48 75.139 1063.67 75.139C1061.17 75.139 1058.87 74.8497 1056.78 74.2538C1054.69 73.659 1052.94 72.7575 1051.51 71.5668C1050.08 70.377 1049.09 68.8793 1048.57 67.0773H1083.26V62.587C1083.26 58.6078 1082.68 54.9848 1081.51 51.7369C1080.34 48.4717 1078.57 45.5971 1076.22 43.0972C1073.93 40.5462 1071.27 38.6245 1068.28 37.3486C1065.27 36.0726 1061.93 35.4432 1058.26 35.4432C1054.13 35.4432 1050.4 36.1067 1047.09 37.4161C1043.77 38.7429 1040.86 40.6991 1038.36 43.3012C1035.86 45.903 1033.97 48.8282 1032.72 52.077C1031.44 55.3249 1030.81 58.8627 1030.81 62.6896C1030.81 66.8226 1031.51 70.5465 1032.89 73.8629C1034.28 77.1793 1036.37 80.0878 1039.18 82.588C1044.79 87.486 1051.63 89.935 1059.69 89.935ZM1048.47 57.4849C1048.7 55.6649 1049.23 54.1175 1050.05 52.8083C1050.85 51.4989 1051.88 50.4953 1053.14 49.7808C1054.4 49.0665 1055.85 48.7098 1057.45 48.7098C1058.92 48.7253 1060.27 49.1007 1061.49 49.832C1062.7 50.563 1063.69 51.5832 1064.42 52.8936C1065.17 54.2027 1065.56 55.7334 1065.61 57.4849H1048.47ZM1107.55 89.935C1114.38 89.935 1119.89 87.8936 1124.08 83.8122C1125.25 85.8024 1126.9 87.2814 1129.03 88.2681C1131.15 89.2375 1133.72 89.7304 1136.73 89.7304C1138.67 89.7304 1140.41 89.5097 1141.94 89.0502C1143.47 88.6082 1144.79 87.9447 1145.92 87.0774V74.2204C1145.56 74.4243 1145.13 74.5772 1144.62 74.6792C1144.13 74.7812 1143.57 74.8321 1142.96 74.8321C1140.92 74.8321 1139.9 73.9138 1139.9 72.0774V56.3627C1139.9 53.1483 1139.32 50.2904 1138.14 47.7571C1136.97 45.2396 1135.2 43.0464 1132.85 41.1578C1130.51 39.2702 1127.8 37.8414 1124.72 36.8888C1121.66 35.9197 1118.21 35.4432 1114.38 35.4432C1110.61 35.4432 1107.09 35.7499 1103.84 36.3792C1100.57 36.9917 1097.6 37.9434 1094.89 39.2194V53.4032C1097.19 52.1282 1099.61 51.1755 1102.14 50.563C1104.67 49.9337 1107.29 49.628 1110 49.628C1111.03 49.628 1111.99 49.6615 1112.85 49.7467C1113.7 49.8152 1114.52 49.9504 1115.32 50.1209C1116.1 50.3081 1116.92 50.5462 1117.75 50.8522C1119.13 51.3116 1120.2 52.1446 1120.93 53.3353C1121.66 54.526 1122.04 56.0559 1122.04 57.8935V58.6078C1120.25 57.7398 1118.26 57.077 1116.07 56.6343C1113.87 56.1755 1111.48 55.9542 1108.87 55.9542C1106.95 55.8863 1105.05 56.0558 1103.14 56.448C1101.22 56.8389 1099.42 57.4682 1097.7 58.3356C1095.97 59.2027 1094.43 60.2914 1093.09 61.6353C1091.75 62.9788 1090.68 64.5772 1089.89 66.4137C1089.11 68.2504 1088.7 70.3426 1088.67 72.6896C1088.67 75.2407 1089.11 77.5535 1089.98 79.6451C1090.85 81.7206 1092.14 83.5574 1093.87 85.139C1095.61 86.7206 1097.62 87.9103 1099.91 88.7269C1102.19 89.5264 1104.74 89.935 1107.55 89.935ZM1113.67 77.7916C1112.29 77.7916 1111.07 77.5535 1109.98 77.0773C1108.89 76.6009 1108.02 75.9208 1107.39 75.037C1106.77 74.1519 1106.44 73.0976 1106.43 71.8734C1106.44 70.6142 1106.8 69.5087 1107.51 68.5738C1108.23 67.6555 1109.2 66.9242 1110.41 66.4137C1111.61 65.9031 1112.97 65.6482 1114.49 65.6482C1115.97 65.6482 1117.34 65.8355 1118.6 66.1923C1119.88 66.5668 1121.02 67.1282 1122.04 67.8936V73.3013C1121.07 74.7812 1119.89 75.9044 1118.5 76.6521C1117.12 77.4175 1115.51 77.7916 1113.67 77.7916ZM1173.26 88.6082V58.5052C1173.96 57.2642 1174.95 56.1922 1176.22 55.2573C1177.5 54.3214 1179.01 53.6069 1180.75 53.0796C1182.48 52.5535 1184.37 52.281 1186.43 52.281C1187.4 52.281 1188.38 52.3486 1189.4 52.5014C1190.42 52.6378 1191.48 52.8424 1192.55 53.0973V35.6481C1192.3 35.597 1191.97 35.5462 1191.58 35.5118C1191.19 35.461 1190.76 35.4432 1190.3 35.4432C1188.47 35.4432 1186.68 35.6991 1184.95 36.2264C1183.21 36.736 1181.53 37.5355 1179.9 38.6068C1178.32 39.627 1176.97 40.699 1175.85 41.8045C1174.74 42.9267 1173.88 44.0666 1173.26 45.2397V36.7701H1155.2V88.6082H1173.26ZM1219.49 82.7919C1221.28 85.1898 1223.45 86.9754 1226.02 88.1662C1228.59 89.3392 1231.58 89.935 1235 89.935C1238.42 89.935 1241.53 89.2883 1244.35 88.0133C1247.16 86.7206 1249.69 84.7812 1251.94 82.1794C1254.18 79.5772 1255.87 76.6521 1256.99 73.3865C1258.11 70.1386 1258.67 66.5668 1258.67 62.6896C1258.67 58.8118 1258.11 55.2573 1256.99 52.0429C1255.87 48.8117 1254.18 45.903 1251.94 43.3012C1249.69 40.6991 1247.16 38.7429 1244.35 37.4161C1241.53 36.1067 1238.42 35.4432 1235 35.4432C1231.68 35.4432 1228.72 36.0391 1226.14 37.2122C1223.54 38.4029 1221.33 40.1885 1219.49 42.5867V17.1777H1201.43V88.6082H1219.49V82.7919ZM1229.8 74.6284C1227.5 74.6284 1225.51 74.1686 1223.81 73.2504C1222.09 72.3321 1220.66 70.9551 1219.49 69.1177V56.2608C1220.66 54.4234 1222.09 53.0464 1223.81 52.1281C1225.51 51.2096 1227.5 50.7502 1229.8 50.7502C1231.96 50.7657 1233.86 51.2939 1235.49 52.3318C1237.13 53.352 1238.4 54.7644 1239.32 56.5501C1240.24 58.3357 1240.7 60.3934 1240.71 62.6896C1240.7 64.9849 1240.24 67.0262 1239.32 68.8285C1238.4 70.6141 1237.13 72.0262 1235.49 73.0464C1233.86 74.0843 1231.96 74.6116 1229.8 74.6284ZM1276.23 109.629C1281.28 109.629 1285.6 108.303 1289.17 105.666C1292.76 103.013 1295.61 99.0679 1297.76 93.8122L1320.92 36.7701H1302.15L1291.33 67.9955L1279.8 36.7701H1260.61L1282.65 86.8734C1281.6 89.5096 1280.31 91.3972 1278.78 92.5371C1277.25 93.6934 1275.34 94.2549 1273.06 94.2208C1271.58 94.2208 1270.14 94.0168 1268.73 93.6082C1267.31 93.2006 1265.97 92.588 1264.69 91.7717V107.282C1266.33 108.048 1268.11 108.626 1270.03 109.034C1271.97 109.425 1274.03 109.629 1276.23 109.629ZM1343.58 86.8734C1344.65 85.8023 1345.45 84.6284 1345.96 83.3533C1346.48 82.0774 1346.74 80.6994 1346.74 79.2207C1346.74 77.7408 1346.48 76.3628 1345.96 75.1045C1345.45 73.8286 1344.65 72.6896 1343.58 71.6688C1342.55 70.5974 1341.42 69.798 1340.14 69.2883C1338.88 68.761 1337.5 68.5061 1336.02 68.5061C1334.54 68.5061 1333.17 68.761 1331.89 69.2883C1330.62 69.798 1329.44 70.5974 1328.37 71.6688C1327.35 72.6896 1326.58 73.8286 1326.07 75.1045C1325.56 76.3628 1325.31 77.7408 1325.31 79.2207C1325.31 82.1794 1326.33 84.7303 1328.37 86.8734C1329.44 87.9447 1330.62 88.7443 1331.89 89.2542C1333.17 89.7812 1334.54 90.037 1336.02 90.037C1337.5 90.037 1338.88 89.7812 1340.14 89.2542C1341.42 88.7443 1342.55 87.9447 1343.58 86.8734ZM592.228 216.978V177.488L623.862 216.978H639.066V145.548H621.106V184.835L589.881 145.548H574.167V216.978H592.228ZM677.741 218.306C682.179 218.306 686.108 217.846 689.543 216.944C692.962 216.026 695.904 214.682 698.353 212.897V199.019C695.648 200.499 692.894 201.621 690.121 202.369C687.332 203.135 684.526 203.509 681.72 203.509C679.22 203.509 676.924 203.22 674.832 202.624C672.741 202.029 670.988 201.128 669.56 199.937C668.131 198.747 667.145 197.25 666.617 195.448H701.312V190.957C701.312 186.978 700.734 183.355 699.561 180.108C698.387 176.842 696.619 173.968 694.271 171.467C691.975 168.916 689.323 166.995 686.329 165.719C683.319 164.443 679.985 163.814 676.312 163.814C672.179 163.814 668.454 164.477 665.138 165.786C661.821 167.114 658.914 169.07 656.413 171.671C653.914 174.273 652.025 177.199 650.767 180.448C649.492 183.695 648.862 187.233 648.862 191.06C648.862 195.193 649.559 198.917 650.937 202.233C652.332 205.55 654.423 208.458 657.23 210.958C662.842 215.857 669.679 218.306 677.741 218.306ZM666.515 185.855C666.754 184.035 667.281 182.488 668.097 181.179C668.897 179.869 669.934 178.866 671.192 178.151C672.451 177.437 673.897 177.08 675.495 177.08C676.975 177.096 678.319 177.471 679.543 178.202C680.75 178.933 681.737 179.953 682.468 181.264C683.217 182.573 683.608 184.104 683.659 185.855H666.515ZM724.272 216.978L733.966 202.693L743.558 216.978H763.457L744.885 190.141L762.232 165.141H742.639L734.17 177.998L725.701 165.141H706.006L723.354 190.244L704.679 216.978H724.272ZM793.151 218.306C795.957 218.306 798.457 218.05 800.668 217.54C802.862 217.03 804.784 216.264 806.417 215.244V200.855C805.243 201.468 804.07 201.928 802.879 202.233C801.706 202.539 800.499 202.693 799.274 202.693C797.097 202.709 795.549 202.233 794.614 201.264C793.679 200.295 793.236 198.696 793.253 196.468V179.631H806.417V165.141H793.253V151.875H775.192V165.141H766.11V179.631H775.192V201.366C775.226 205.039 775.991 208.135 777.488 210.652C779.001 213.169 781.093 215.074 783.78 216.366C786.468 217.659 789.597 218.306 793.151 218.306ZM864.684 218.306C867.49 218.306 869.989 218.05 872.2 217.54C874.395 217.03 876.317 216.264 877.949 215.244V200.855C876.775 201.468 875.602 201.928 874.411 202.233C873.238 202.539 872.031 202.693 870.806 202.693C868.629 202.709 867.082 202.233 866.146 201.264C865.211 200.295 864.768 198.696 864.786 196.468V179.631H877.949V165.141H864.786V151.875H846.724V165.141H837.642V179.631H846.724V201.366C846.758 205.039 847.524 208.135 849.02 210.652C850.533 213.169 852.626 215.074 855.313 216.366C858 217.659 861.129 218.306 864.684 218.306ZM925.502 191.06C925.486 193.355 924.991 195.397 924.022 197.166C923.036 198.934 921.692 200.328 919.991 201.349C918.273 202.369 916.3 202.88 914.073 202.897C911.845 202.881 909.872 202.369 908.154 201.349C906.453 200.328 905.11 198.934 904.14 197.166C903.154 195.397 902.661 193.355 902.644 191.06C902.662 188.832 903.154 186.825 904.14 185.039C905.11 183.27 906.453 181.859 908.154 180.821C909.872 179.784 911.845 179.239 914.073 179.223C916.3 179.238 918.273 179.784 919.991 180.821C921.692 181.859 923.036 183.27 924.022 185.039C924.991 186.825 925.485 188.832 925.502 191.06ZM934.991 210.55C937.747 207.948 939.822 205.022 941.2 201.757C942.577 198.509 943.257 194.937 943.257 191.06C943.257 187.182 942.577 183.628 941.2 180.413C939.822 177.182 937.747 174.273 934.991 171.671C932.236 169.07 929.124 167.114 925.638 165.786C922.169 164.477 918.307 163.814 914.073 163.814C909.838 163.814 905.978 164.477 902.507 165.786C899.021 167.114 895.909 169.07 893.154 171.671C890.398 174.273 888.34 177.182 886.963 180.413C885.586 183.628 884.889 187.182 884.889 191.06C884.889 194.937 885.586 198.509 886.963 201.757C888.34 205.022 890.398 207.948 893.154 210.55C895.909 213.152 899.021 215.091 902.507 216.384C905.978 217.659 909.838 218.306 914.073 218.306C918.307 218.306 922.169 217.659 925.638 216.384C929.124 215.091 932.236 213.152 934.991 210.55ZM1003.77 218.306C1008.21 218.306 1012.14 217.846 1015.57 216.944C1018.99 216.026 1021.93 214.682 1024.38 212.897V199.019C1021.68 200.499 1018.92 201.621 1016.15 202.369C1013.36 203.135 1010.55 203.509 1007.75 203.509C1005.25 203.509 1002.95 203.22 1000.86 202.624C998.769 202.029 997.017 201.128 995.587 199.937C994.16 198.747 993.173 197.25 992.645 195.448H1027.34V190.957C1027.34 186.978 1026.76 183.355 1025.59 180.108C1024.41 176.842 1022.65 173.968 1020.3 171.467C1018 168.916 1015.35 166.995 1012.36 165.719C1009.35 164.443 1006.01 163.814 1002.34 163.814C998.207 163.814 994.482 164.477 991.166 165.786C987.849 167.114 984.942 169.07 982.441 171.671C979.942 174.273 978.053 177.199 976.795 180.448C975.52 183.695 974.891 187.233 974.891 191.06C974.891 195.193 975.587 198.917 976.965 202.233C978.36 205.55 980.451 208.458 983.258 210.958C988.87 215.857 995.707 218.306 1003.77 218.306ZM992.543 185.855C992.782 184.035 993.309 182.488 994.125 181.179C994.925 179.869 995.962 178.866 997.22 178.151C998.479 177.437 999.925 177.08 1001.52 177.08C1003 177.096 1004.35 177.471 1005.57 178.202C1006.78 178.933 1007.77 179.953 1008.5 181.264C1009.24 182.573 1009.64 184.104 1009.69 185.855H992.543ZM1068.57 217.386L1090.51 165.141H1071.93L1060.71 194.937L1049.48 165.141H1030.3L1052.24 217.386H1068.57ZM1121.93 218.306C1126.37 218.306 1130.3 217.846 1133.74 216.944C1137.16 216.026 1140.1 214.682 1142.55 212.897V199.019C1139.84 200.499 1137.09 201.621 1134.32 202.369C1131.53 203.135 1128.72 203.509 1125.92 203.509C1123.41 203.509 1121.12 203.22 1119.03 202.624C1116.93 202.029 1115.18 201.128 1113.75 199.937C1112.33 198.747 1111.34 197.25 1110.81 195.448H1145.51V190.957C1145.51 186.978 1144.93 183.355 1143.76 180.108C1142.58 176.842 1140.81 173.968 1138.47 171.467C1136.17 168.916 1133.52 166.995 1130.52 165.719C1127.51 164.443 1124.18 163.814 1120.51 163.814C1116.37 163.814 1112.65 164.477 1109.33 165.786C1106.02 167.114 1103.11 169.07 1100.61 171.671C1098.11 174.273 1096.22 177.199 1094.96 180.448C1093.69 183.695 1093.06 187.233 1093.06 191.06C1093.06 195.193 1093.75 198.917 1095.13 202.233C1096.53 205.55 1098.62 208.458 1101.42 210.958C1107.04 215.857 1113.87 218.306 1121.93 218.306ZM1110.71 185.855C1110.95 184.035 1111.48 182.488 1112.29 181.179C1113.09 179.869 1114.13 178.866 1115.39 178.151C1116.65 177.437 1118.09 177.08 1119.69 177.08C1121.17 177.096 1122.51 177.471 1123.74 178.202C1124.94 178.933 1125.93 179.953 1126.66 181.264C1127.41 182.573 1127.8 184.104 1127.85 185.855H1110.71ZM1173.16 216.978V186.875C1173.86 185.635 1174.84 184.563 1176.12 183.628C1177.4 182.692 1178.91 181.977 1180.64 181.45C1182.38 180.924 1184.27 180.651 1186.32 180.651C1187.29 180.651 1188.28 180.719 1189.3 180.872C1190.32 181.008 1191.38 181.213 1192.45 181.468V164.018C1192.19 163.968 1191.87 163.917 1191.48 163.882C1191.09 163.831 1190.66 163.814 1190.2 163.814C1188.36 163.814 1186.58 164.069 1184.84 164.597C1183.11 165.106 1181.43 165.906 1179.79 166.977C1178.21 167.997 1176.87 169.07 1175.75 170.175C1174.64 171.297 1173.77 172.437 1173.16 173.61V165.141H1155.1V216.978H1173.16ZM1214.79 238C1219.84 238 1224.16 236.673 1227.74 234.037C1231.32 231.384 1234.18 227.438 1236.32 222.183L1259.49 165.141H1240.71L1229.9 196.366L1218.37 165.141H1199.18L1221.22 215.244C1220.17 217.88 1218.88 219.768 1217.34 220.907C1215.81 222.064 1213.91 222.626 1211.63 222.591C1210.15 222.591 1208.71 222.387 1207.29 221.979C1205.88 221.571 1204.54 220.959 1203.26 220.142V235.653C1204.9 236.418 1206.68 236.997 1208.6 237.404C1210.54 237.795 1212.6 238 1214.79 238ZM1301.84 191.06C1301.82 193.355 1301.33 195.397 1300.36 197.166C1299.37 198.934 1298.03 200.328 1296.33 201.349C1294.61 202.369 1292.64 202.88 1290.41 202.897C1288.18 202.881 1286.21 202.369 1284.49 201.349C1282.79 200.328 1281.45 198.934 1280.48 197.166C1279.49 195.397 1279 193.355 1278.98 191.06C1279 188.832 1279.49 186.825 1280.48 185.039C1281.45 183.27 1282.79 181.859 1284.49 180.821C1286.21 179.784 1288.18 179.239 1290.41 179.223C1292.64 179.238 1294.61 179.784 1296.33 180.821C1298.03 181.859 1299.37 183.27 1300.36 185.039C1301.33 186.825 1301.82 188.832 1301.84 191.06ZM1311.33 210.55C1314.08 207.948 1316.16 205.022 1317.54 201.757C1318.91 198.509 1319.59 194.937 1319.59 191.06C1319.59 187.182 1318.91 183.628 1317.54 180.413C1316.16 177.182 1314.08 174.273 1311.33 171.671C1308.57 169.07 1305.46 167.114 1301.97 165.786C1298.5 164.477 1294.64 163.814 1290.41 163.814C1286.17 163.814 1282.31 164.477 1278.84 165.786C1275.36 167.114 1272.25 169.07 1269.49 171.671C1266.73 174.273 1264.68 177.182 1263.3 180.413C1261.92 183.628 1261.22 187.182 1261.22 191.06C1261.22 194.937 1261.92 198.509 1263.3 201.757C1264.68 205.022 1266.73 207.948 1269.49 210.55C1272.25 213.152 1275.36 215.091 1278.84 216.384C1282.31 217.659 1286.17 218.306 1290.41 218.306C1294.64 218.306 1298.5 217.659 1301.97 216.384C1305.46 215.091 1308.57 213.152 1311.33 210.55ZM1346.84 184.529C1347.96 182.999 1349.24 181.842 1350.68 181.077C1352.11 180.311 1353.73 179.937 1355.51 179.937C1356.92 179.922 1358.18 180.209 1359.3 180.804C1360.43 181.383 1361.31 182.301 1361.96 183.559C1362.62 184.818 1362.94 186.468 1362.96 188.508V216.978H1381.02V185.141C1381.01 180.77 1380.27 176.995 1378.8 173.797C1377.33 170.617 1375.22 168.168 1372.47 166.433C1369.71 164.715 1366.41 163.831 1362.55 163.814C1359.54 163.814 1356.74 164.409 1354.12 165.583C1351.52 166.773 1349.08 168.559 1346.84 170.957V165.141H1328.78V216.978H1346.84V184.529ZM1418.17 218.306C1422.61 218.306 1426.54 217.846 1429.97 216.944C1433.39 216.026 1436.33 214.682 1438.78 212.897V199.019C1436.08 200.499 1433.32 201.621 1430.55 202.369C1427.76 203.135 1424.95 203.509 1422.15 203.509C1419.65 203.509 1417.35 203.22 1415.26 202.624C1413.17 202.029 1411.42 201.128 1409.99 199.937C1408.56 198.747 1407.57 197.25 1407.04 195.448H1441.74V190.957C1441.74 186.978 1441.16 183.355 1439.99 180.108C1438.81 176.842 1437.05 173.968 1434.7 171.467C1432.4 168.916 1429.75 166.995 1426.76 165.719C1423.75 164.443 1420.41 163.814 1416.74 163.814C1412.61 163.814 1408.88 164.477 1405.56 165.786C1402.25 167.114 1399.34 169.07 1396.84 171.671C1394.34 174.273 1392.45 177.199 1391.19 180.448C1389.92 183.695 1389.29 187.233 1389.29 191.06C1389.29 195.193 1389.99 198.917 1391.36 202.233C1392.76 205.55 1394.85 208.458 1397.66 210.958C1403.27 215.857 1410.11 218.306 1418.17 218.306ZM1406.94 185.855C1407.18 184.035 1407.71 182.488 1408.52 181.179C1409.32 179.869 1410.36 178.866 1411.62 178.151C1412.88 177.437 1414.32 177.08 1415.92 177.08C1417.4 177.096 1418.75 177.471 1419.97 178.202C1421.18 178.933 1422.16 179.953 1422.9 181.264C1423.64 182.573 1424.04 184.104 1424.09 185.855H1406.94Z" fill="#2BA941"/>
</svg>
