<svg viewBox="0 0 624.3 57.6"  xmlns="http://www.w3.org/2000/svg">
	<path fill="white" fill-rule="evenodd" d="M82.3,1.4H103c4.6,0,8.4,0.9,11.5,2.8c3,1.9,4.6,5,4.6,9.3c0,2.4-0.6,4.5-1.8,6.3c-1.2,1.8-2.8,3.3-4.9,4.4   c-2,1.1-4.2,1.8-6.5,2.1v0.7c3.9,0.4,7.2,1.6,10.1,3.6c2.9,2,4.3,5.2,4.3,9.7c0,3.5-0.9,6.4-2.8,8.8c-1.8,2.4-4.3,4.1-7.3,5.3   c-3,1.2-6.1,1.7-9.4,1.7H82.3V1.4L82.3,1.4z M94.3,25.1h2.2c3.1,0,5.5-0.7,7.1-2c2.3-1.9,3.5-4.7,3.5-8.4c0-2.9-0.8-5.1-2.3-6.6   c-1.5-1.5-3.6-2.3-6.3-2.3c-1,0-1.8,0-2.2,0.1c-0.5,0-1.1,0.1-1.9,0.3V25.1L94.3,25.1z M94.3,51.5h4c1.5,0,2.9-0.4,4.4-1.3   c1.5-0.8,2.7-2,3.6-3.6c0.9-1.6,1.4-3.5,1.4-5.6c0-7.6-3.8-11.3-11.4-11.3c-0.4,0-0.8,0-1.1,0c-0.3,0-0.7,0-1,0V51.5L94.3,51.5z    M161.9,1.4l-0.4,3.5c0,0.5,0.1,1.6,0.4,3.5c-5.5-0.7-11.7-1.1-18.6-1.1v17.3h8.4c3.2,0,6.5-0.3,9.9-0.8c-0.3,1.7-0.4,2.8-0.4,3.5   c0,0.7,0.1,1.8,0.4,3.5c-1.7-0.2-3.4-0.4-5.1-0.5c-1.7-0.1-3.3-0.2-4.8-0.2h-8.4v20.4c3.7,0,7-0.1,9.9-0.3c2.8-0.2,5.7-0.5,8.7-0.8   l-0.4,3.5c0,0.5,0.1,1.6,0.4,3.5h-30.6V1.4H161.9L161.9,1.4z M183.7,50.4c0.9,0,2.3,0,4.4-0.1c2.1-0.1,3.6-0.1,4.6-0.1   c1.2,0,2.7-0.1,4.4-0.3c1.7-0.2,3.4-0.4,5-0.5l-0.4,3.5c0,0.5,0.1,1.6,0.4,3.5h-30.5V1.4c1.1,0,2.2,0,3.1,0.1   c1,0.1,1.9,0.2,2.9,0.3c0.9-0.1,1.9-0.2,3.1-0.3c1.2-0.1,2.1-0.1,2.9-0.1V50.4L183.7,50.4z M219.7,39.8l-2,5.6l-2.2,6.2l-1.5,4.8   l-1.9-0.1l-1.9-0.1l-1.9,0.1l-2,0.1l23-55.7c1,0.2,2,0.2,3,0.2c1,0,2-0.1,3.1-0.2L258,56.6l-6.9-0.4c-1,0.1-2.2,0.2-3.5,0.3   c-1.3,0.1-2.5,0.1-3.4,0.1c-2.4-7.7-4.3-13.3-5.7-16.8H219.7L219.7,39.8z M236.6,34.9l-7.1-18.7l-7.6,18.7H236.6L236.6,34.9z    M265,1.4h17.1c6.4,0,10.7,0.5,13,1.6c4.6,2.4,7,6.3,7,11.5c0,3.8-1.1,7-3.3,9.5c-2.2,2.5-5.3,4.1-9.2,5l4,6.8l5.3,8.4l4.8,7.4   l3.1,5l-7.3-0.4c-1.1,0.1-2.3,0.2-3.7,0.3c-1.4,0.1-2.6,0.1-3.6,0.1l-9.5-16.9l-2.7-4.6l-2.6-4.4h-0.5v25.8l-6-0.4   c-0.9,0.1-1.9,0.2-3,0.3c-1.2,0.1-2.2,0.1-3,0.1V1.4L265,1.4z M277.1,27.3l2,0.1c7.1,0,10.6-3.9,10.6-11.6c0-0.6,0-1.2-0.1-1.9   c-0.1-0.7-0.2-1.4-0.3-2.1c-0.4-2.5-1.5-4.1-3.2-4.9c-1.7-0.8-3.9-1.1-6.6-1.1h-2.4V27.3L277.1,27.3z M315.3,1.4   c1.1,0,2.2,0,3.1,0.1c1,0.1,1.9,0.2,2.9,0.3c0.9-0.1,1.9-0.2,3.1-0.3c1.2-0.1,2.2-0.1,3-0.1v22.8c0,7.5,0.2,12.5,0.6,14.9   c0.4,2.4,0.8,4.3,1.4,5.6c0.6,1.3,1.5,2.6,2.9,3.9c2.4,2.3,5.5,3.5,9.1,3.5c2.5,0,4.6-0.3,6.4-1c1.8-0.6,3.3-1.7,4.5-3.1   c1.3-1.4,2.4-3.3,3.3-5.7c1-2.4,1.4-7.9,1.4-16.7V1.4c1.1,0.2,2.1,0.2,3.2,0.2c1.1,0,2.1-0.1,3.2-0.2v28.6c0,1.8,0,3.5-0.1,4.9   c-0.1,1.4-0.2,3.2-0.5,5.4c-0.3,2.1-1,4.4-2.2,6.8c-1.2,2.4-3.1,4.5-5.7,6.3c-3.9,2.9-9,4.3-15.2,4.3c-3.6,0-7-0.4-10.1-1.3   c-3.1-0.9-5.8-2.3-8.2-4.3c-2.4-2-4-4.6-5-7.9c-0.8-3.1-1.3-6.3-1.3-9.9V1.4L315.3,1.4z M401.9,11.8c-1.8-4.7-4.9-7-9.3-7   c-5.9,0-8.8,2.6-8.8,7.9c0,2.3,0.8,4,2.4,5.2c1.5,1.1,4.5,2.7,8.9,5c4.4,2.3,7.8,4.7,9.9,7.2c2.2,2.5,3.3,5.7,3.3,9.8   c0,3.4-0.9,6.4-2.7,9.1c-1.8,2.7-4.3,4.8-7.6,6.3c-3.3,1.5-6.9,2.3-11,2.3c-5,0-9.3-1.2-13-3.5c1.2-4.1,2-7.5,2.4-10.2h1.5   c0.6,2.7,1.9,4.9,3.9,6.5c2,1.6,4.4,2.4,7.2,2.4c2.6,0,4.8-0.7,6.7-2.2c1.8-1.5,2.7-3.5,2.7-6.2c0-2.9-0.8-4.9-2.5-6.2   c-1.7-1.3-4.6-2.9-8.8-4.9c-4.2-2-7.3-4.2-9.4-6.5c-2.1-2.3-3.1-5.7-3.1-10c0-2.3,0.4-4.5,1.2-6.6c0.8-2,2-3.8,3.5-5.4   c1.6-1.5,3.5-2.7,5.9-3.6c2.4-0.9,5-1.3,7.9-1.3c2.7,0,5.3,0.4,7.6,1.2c2.3,0.8,4,1.7,5.1,2.7c-0.2,0.4-0.5,1.2-0.8,2.4   c-0.7,2-1.2,3.8-1.7,5.5H401.9L401.9,11.8z M417.2,1.4h20.7c4.6,0,8.4,0.9,11.5,2.8c3,1.9,4.6,5,4.6,9.3c0,2.4-0.6,4.5-1.8,6.3   c-1.2,1.8-2.8,3.3-4.9,4.4c-2,1.1-4.2,1.8-6.5,2.1v0.7c3.9,0.4,7.2,1.6,10.1,3.6c2.9,2,4.3,5.2,4.3,9.7c0,3.5-0.9,6.4-2.8,8.8   c-1.8,2.4-4.3,4.1-7.3,5.3c-3,1.2-6.1,1.7-9.4,1.7h-18.6V1.4L417.2,1.4z M429.2,25.1h2.2c3.1,0,5.5-0.7,7.1-2   c2.3-1.9,3.5-4.7,3.5-8.4c0-2.9-0.8-5.1-2.3-6.6c-1.5-1.5-3.6-2.3-6.3-2.3c-1,0-1.8,0-2.2,0.1c-0.5,0-1.1,0.1-1.9,0.3V25.1   L429.2,25.1z M429.2,51.5h4c1.5,0,2.9-0.4,4.4-1.3c1.5-0.8,2.7-2,3.6-3.6c0.9-1.6,1.4-3.5,1.4-5.6c0-7.6-3.8-11.3-11.4-11.3   c-0.4,0-0.8,0-1.1,0c-0.3,0-0.7,0-1,0V51.5L429.2,51.5z M474.3,39.8l-2,5.6l-2.2,6.2l-1.5,4.8l-1.9-0.1l-1.9-0.1l-1.9,0.1l-2,0.1   l23-55.7c1,0.2,2,0.2,3,0.2c1,0,2-0.1,3.1-0.2l22.4,55.8l-6.9-0.4c-1,0.1-2.2,0.2-3.5,0.3c-1.3,0.1-2.5,0.1-3.4,0.1   c-2.4-7.7-4.3-13.3-5.7-16.8H474.3L474.3,39.8z M491.2,34.9L484,16.2l-7.6,18.7H491.2L491.2,34.9z M520.3,1.4h8l8,8.6l8.9,9.5   l9.4,10.2c0.7,0.8,1.6,1.8,2.8,3.1c1.6,1.8,2.5,2.8,2.8,3.1c1.2,1.3,2.1,2.4,2.8,3.2V1.4c1,0.2,2.1,0.2,3.2,0.2   c1,0,2.1-0.1,3.2-0.2v55.1l-6.8-0.1l-9.9-11.1l-8.8-9.7c-1.2-1.3-2.6-2.8-4.1-4.5c-1.1-1.2-2.5-2.7-4.2-4.5l-8.7-9.1v38.9l-1.6-0.1   l-1.6-0.1l-1.6,0.1l-1.6,0.1V1.4L520.3,1.4z M582,1.4c1.1,0,2.2,0,3.1,0.1c1,0.1,1.9,0.2,2.9,0.3c0.9-0.1,1.9-0.2,3.1-0.3   c1.2-0.1,2.2-0.1,3-0.1v25.2c4-4.6,7.7-8.9,11-12.9c3.5-4.3,6.9-8.4,9.9-12.2c2.3,0.3,3.8,0.4,4.4,0.4c0.5,0,1.9-0.1,4.3-0.4v0.6   l-13.2,13.8l-4.2,4.6l-3.5,3.8l21.6,31.1v1.1l-6.1-0.4c-0.9,0.1-1.9,0.2-3,0.3c-1.2,0.1-2.2,0.1-3,0.1L594,31v25.5l-6-0.4   c-0.9,0.1-1.9,0.2-3.1,0.3c-1.2,0.1-2.1,0.1-2.9,0.1V1.4z"></path>
	<path fill="white" fill-rule="evenodd" d="M0,57h55.1V1.6H0V57L0,57z M23.2,52.4h-7.9C14.8,46.8,10.4,42.4,4.8,42v-7.9c0,0,0.1,0,0.1,0   C14.9,34.1,23.2,42.3,23.2,52.4C23.2,52.4,23.2,52.4,23.2,52.4L23.2,52.4z M36.8,52.5h-8.5c0-12.9-10.5-23.4-23.4-23.4   c0,0,0,0-0.1,0v-8.5c0,0,0,0,0.1,0C22.4,20.5,36.8,34.9,36.8,52.5L36.8,52.5z M50.3,52.4h-8.5c0,0,0,0,0,0   c0-19.6-15.3-35.7-34.5-37H4.8V6.6h45.5v8.9h-19C42.8,23.7,50.3,37.2,50.3,52.4C50.3,52.4,50.3,52.4,50.3,52.4z" ></path>
</svg>