<svg width="225" height="20" viewBox="0 0 225 20" fill="none" xmlns="http://www.w3.org/2000/svg">
<g clip-path="url(#clip0_101_6)">
<path fill-rule="evenodd" clip-rule="evenodd" d="M225 19.526L223.766 19.47L222.567 19.418L221.333 19.474L220.128 19.526L213.909 10.584V19.526L212.819 19.47L211.753 19.418L210.687 19.474L209.597 19.526V0.507023L210.534 0.606023L211.753 0.672023L212.356 0.658023L213.082 0.592023L213.909 0.507023V9.02702C214.665 8.17202 215.501 7.21202 216.414 6.14902C217.184 5.25502 218.006 4.27702 218.895 3.21402C219.66 2.29202 220.482 1.59802 221.362 0.507023L221.936 0.592023L222.452 0.658023L222.916 0.672023C223.006 0.672023 223.126 0.667023 223.264 0.658023C223.403 0.649023 223.575 0.630023 223.781 0.606023L224.426 0.507023V0.728023C223.781 1.33502 223.116 1.91302 222.433 2.60502C221.744 3.30102 221.042 3.78802 220.325 4.55002C218.857 6.12102 217.753 7.34902 217.002 8.24202L225 19.154V19.526ZM202.484 19.418L201.433 19.474L200.357 19.526V10.1C199.592 10.1 198.865 10.091 198.177 10.067C197.493 10.044 196.757 10.02 195.973 9.99202C195.71 9.99202 195.093 10.011 194.123 10.044C193.148 10.081 192.302 10.1 191.585 10.1V19.526L190.495 19.47L189.429 19.418H188.979C188.721 19.446 188.511 19.465 188.353 19.474L187.273 19.526V0.507023L188.114 0.592023L188.826 0.658023L189.429 0.672023L190.031 0.658023L190.758 0.592023L191.585 0.507023V7.84202C192.378 7.84202 193.134 7.85602 193.846 7.89002C194.563 7.92302 195.27 7.95102 195.973 7.97902C196.595 7.94102 197.331 7.91302 198.177 7.88502C199.023 7.85602 199.75 7.84202 200.357 7.84202V0.507023L201.184 0.592023L201.882 0.658023L202.484 0.672023L203.115 0.644023L203.842 0.592023L204.654 0.507023V19.526L203.588 19.47L202.484 19.418V19.418ZM181.938 19.418L180.709 19.474L179.505 19.526C179.146 18.407 178.883 17.583 178.706 17.061C178.396 16.149 178.171 15.5 178.032 15.105C177.855 14.606 177.669 14.126 177.473 13.656H170.79L170.082 15.632L169.303 17.819L168.773 19.503L168.127 19.46L167.429 19.418L166.76 19.46L166.057 19.503L174.265 0.258023C174.629 0.314023 174.987 0.343023 175.341 0.343023C175.69 0.343023 176.053 0.314023 176.436 0.258023L184.447 19.526L183.186 19.47L181.938 19.418V19.418ZM174.265 5.36302L171.569 11.934H176.813L174.265 5.36302ZM157.218 19.418H151.152V0.507023H163.844C163.796 0.700023 163.758 0.902023 163.729 1.11402C163.701 1.32602 163.686 1.45702 163.686 1.65002C163.686 2.00702 163.739 2.41202 163.839 2.86302C161.889 2.60502 159.097 2.47802 155.464 2.47802V8.52002H158.504C159.828 8.52002 160.961 8.69402 161.903 9.04202C162.84 9.39502 163.557 9.92102 164.045 10.636C164.537 11.347 164.781 12.231 164.781 13.285C164.781 17.372 162.262 19.418 157.218 19.418V19.418ZM159.508 11.126C158.949 10.425 158.289 10.077 157.524 10.077H155.464V17.833C155.975 17.833 156.406 17.819 156.745 17.791C157.089 17.762 157.386 17.715 157.634 17.64C158.523 17.391 159.197 16.916 159.651 16.215C160.11 15.509 160.34 14.705 160.34 13.797C160.34 12.711 160.063 11.822 159.508 11.126V11.126ZM147.065 3.35002C147.026 3.54302 146.974 3.75002 146.912 3.97202H146.515C145.956 3.18102 145.253 2.79702 144.402 2.33702C143.953 2.10202 143.518 1.91802 143.092 1.80102C142.667 1.68302 142.222 1.62202 141.754 1.62202C140.616 1.62202 139.617 1.86602 138.756 2.35102C137.901 2.84002 137.198 3.26102 136.653 4.10302C136.103 4.94002 135.707 5.86702 135.453 6.87902C135.324 7.41002 135.224 7.92702 135.162 8.42102C135.095 8.91902 135.061 9.45102 135.061 10.02C135.061 11.619 135.329 13.044 135.86 14.3C136.39 15.551 137.17 16.52 138.197 17.207C139.225 17.889 140.458 18.232 141.897 18.232C142.767 18.232 143.671 18.035 144.612 17.64C145.559 17.245 146.362 16.737 147.022 16.111L147.399 16.276L146.773 18.713C145.167 19.521 143.274 19.926 141.099 19.926C139.579 19.926 138.154 19.7 136.825 19.249C135.501 18.802 134.354 18.157 133.388 17.32C132.422 16.488 131.667 15.472 131.117 14.282C130.572 13.097 130.3 11.803 130.3 10.406C130.3 8.62302 130.596 7.05302 131.184 5.68802C131.772 4.32402 132.585 3.43702 133.632 2.55302C134.679 1.66902 135.888 1.07702 137.26 0.649023C138.632 0.216023 140.124 -0.000976562 141.73 -0.000976562C142.71 -0.000976562 143.728 0.117023 144.789 0.357023C145.846 0.597023 146.773 0.940023 147.567 1.39102L147.218 2.82102C147.122 3.29602 147.074 3.31302 147.065 3.35002V3.35002ZM126.06 8.82102C125.907 9.11202 125.477 9.97802 124.755 11.412C124.234 12.447 123.808 13.303 123.483 13.971C122.278 16.435 121.428 18.284 120.931 19.526L120.371 19.47L119.726 19.418L119.085 19.47L118.497 19.526C118.832 18.957 119.286 18.101 119.855 16.958L121.102 14.409C120.725 13.6 120.146 12.532 119.362 11.21C118.578 9.89302 117.775 8.59102 116.953 7.30102L114.42 3.28502C113.588 1.93502 112.966 1.21702 112.555 0.507023L113.535 0.592023L114.391 0.644023L115.132 0.672023L115.849 0.658023L116.719 0.592023L117.723 0.507023C117.919 0.902023 118.411 1.71102 119.195 3.07002L121.547 6.80802C121.929 7.45202 122.274 8.04002 122.58 8.56702C122.881 9.09302 123.096 9.48402 123.23 9.72902C123.464 9.38002 123.789 8.80602 124.21 8.00702C124.377 7.67802 124.635 7.15602 124.98 6.43602C125.156 6.06902 125.338 5.69802 125.524 5.32102L126.911 2.55802L127.876 0.507023C128.345 0.564023 128.813 0.592023 129.277 0.592023C129.698 0.592023 130.157 0.564023 130.654 0.507023C129.86 1.90402 128.78 3.59502 127.417 6.20102C126.882 7.21202 126.433 8.08702 126.06 8.82102V8.82102ZM111.723 8.70302C110.997 9.60602 109.978 10.232 108.654 10.575C107.335 10.919 105.757 11.093 103.926 11.093V19.526L102.837 19.47L101.771 19.418H101.197C100.972 19.446 100.805 19.465 100.695 19.474L99.615 19.526V0.507023H106.675C108.674 0.507023 110.194 0.836023 111.24 1.63602C112.287 2.43502 112.809 3.38302 112.809 4.95902C112.809 6.54902 112.445 7.79502 111.723 8.70302V8.70302ZM107.602 3.01802C107.096 2.33702 106.46 1.99302 105.705 1.99302H103.926V9.50802C104.347 9.50802 104.701 9.49302 104.983 9.46002C105.27 9.42802 105.547 9.38002 105.82 9.31502C106.685 9.08402 107.33 8.62302 107.746 7.92302C108.162 7.22602 108.367 6.40802 108.367 5.47202C108.367 4.36202 108.114 3.70502 107.602 3.01802V3.01802ZM94.28 19.418L93.051 19.474L91.846 19.526C91.488 18.407 91.225 17.583 91.048 17.061C90.737 16.149 90.513 15.5 90.374 15.105C90.197 14.606 90.011 14.126 89.815 13.656H83.132L82.424 15.632L81.645 17.819L81.114 19.503L80.469 19.46L79.771 19.418L79.102 19.46L78.399 19.503L86.607 0.258023C86.97 0.314023 87.329 0.343023 87.683 0.343023C88.032 0.343023 88.395 0.314023 88.777 0.258023L96.789 19.526L95.527 19.47L94.28 19.418V19.418ZM86.607 5.36302L83.911 11.934H89.155L86.607 5.36302V5.36302ZM75.665 19.362L74.948 19.333L74.235 19.362C74.068 19.362 73.93 19.366 73.829 19.376C73.729 19.385 73.571 19.404 73.365 19.432L72.428 19.503C72.113 18.444 71.745 17.33 71.339 16.154C70.889 14.865 70.521 13.844 70.229 13.092L68.843 9.49802L67.347 5.52802C65 11.111 63.221 15.773 62.007 19.503C61.563 19.446 61.113 19.418 60.664 19.418C60.224 19.418 59.784 19.446 59.349 19.503L61.577 14.376L63.551 9.78502L65.454 5.11402C65.745 4.39502 66.061 3.82702 66.405 2.92502C66.754 2.01702 67.065 1.25102 67.347 0.479023L67.849 0.536023C68.121 0.573023 68.351 0.592023 68.552 0.592023H68.829L69.163 0.550023L69.46 0.521023L69.78 0.479023C70.081 1.28802 70.382 2.02202 70.693 2.82102C71.037 3.73802 71.31 4.20602 71.506 4.70002L73.408 9.53602L75.215 14.033L77.472 19.503L76.516 19.418L75.665 19.362ZM46.734 19.418V0.507023H57.686C57.595 1.16102 57.547 1.49502 57.547 1.65002C57.547 1.80502 57.595 2.20902 57.686 2.86302C55.707 2.60502 53.489 2.47802 51.031 2.47802V8.32702H54.043C54.894 8.32702 56.07 8.23802 57.576 8.06302C57.48 8.61402 57.432 9.00902 57.432 9.24902C57.432 9.47902 57.48 9.88902 57.576 10.477C56.433 10.321 55.257 10.241 54.043 10.241H51.031V17.376C53.489 17.376 55.707 17.25 57.686 16.991C57.595 17.645 57.547 18.049 57.547 18.205L57.686 19.418H46.734V19.418ZM35.543 19.418H30.014V0.507023H42.168C42.121 0.700023 42.082 0.902023 42.054 1.11402C42.025 1.32602 42.011 1.45702 42.011 1.65002C42.011 2.00702 42.063 2.41202 42.164 2.86302C40.213 2.60502 37.422 2.47802 33.788 2.47802V8.52002H36.829C38.153 8.52002 39.286 8.69402 40.228 9.04202C41.164 9.39502 41.882 9.92102 42.369 10.636C42.862 11.347 43.105 12.231 43.105 13.285C43.105 17.372 40.586 19.418 35.543 19.418ZM37.832 11.126C37.273 10.425 36.614 10.077 35.849 10.077H33.788V17.833C34.3 17.833 34.73 17.819 35.07 17.791C35.414 17.762 35.71 17.715 35.959 17.64C36.848 17.391 37.522 16.916 37.976 16.215C38.435 15.509 38.665 14.705 38.665 13.797C38.665 12.711 38.387 11.822 37.832 11.126V11.126ZM-0.000976562 0.498023H20.026V19.492H-0.000976562V0.498023ZM14.933 17.526H17.984V17.523C17.984 12.184 15.271 8.38402 11.165 5.47602H18.037V2.51402H2.00502V5.47602H2.90102C9.76902 5.93602 14.933 10.652 14.933 17.523V17.526ZM1.99802 14.472C3.99002 14.601 5.02602 15.573 5.16402 17.531H7.99602C7.99602 17.526 7.99702 17.521 7.99702 17.516C7.99702 13.975 5.62702 11.687 2.02802 11.687C2.01802 11.687 2.00802 11.688 1.99802 11.688V14.472V14.472ZM1.99102 9.93002H2.01102C6.61102 9.93002 10.001 12.985 10.004 17.51H13.055C13.052 11.331 8.29102 6.92702 2.01102 6.92702H1.99102V9.93002Z" fill="white"/>
</g>
<defs>
<clipPath id="clip0_101_6">
<rect width="225" height="19.93" fill="white"/>
</clipPath>
</defs>
</svg>